<svg enable-background="new 0 0 512 512" viewBox="0 0 512 512" xmlns="http://www.w3.org/2000/svg"><path d="m474.9 505.6h-437.8c-16.6 0-30.1-13.5-30.1-30.1v-438.3c0-16.6 13.5-30.1 30.1-30.1h437.8c16.6 0 30.1 13.5 30.1 30.1v438.3c0 16.6-13.5 30.1-30.1 30.1z" fill="none" stroke="#fff" stroke-miterlimit="10" stroke-width="5"/><path d="m342.6 399c-1.8 0-3.6-.7-4.9-2-2.7-2.7-2.7-7.2 0-9.9l24.9-25c2.7-2.7 7.2-2.7 9.9 0s2.7 7.2 0 9.9l-24.9 25c-1.4 1.3-3.2 2-5 2z" fill="#fff"/><path d="m290.6 451c-1.8 0-3.6-.7-4.9-2-2.7-2.7-2.7-7.2 0-9.9l24.9-25c2.7-2.7 7.2-2.7 9.9 0s2.7 7.2 0 9.9l-24.9 25c-1.4 1.3-3.2 2-5 2z" fill="#fff"/><path d="m315.4 399c-1.8 0-3.6-.7-5-2l-24.9-25c-2.7-2.7-2.7-7.2 0-9.9s7.2-2.7 9.9 0l24.9 24.9c2.7 2.7 2.7 7.2 0 9.9-1.3 1.4-3.1 2.1-4.9 2.1z" fill="#fff"/><path d="m367.5 451c-1.8 0-3.6-.7-5-2.1l-24.9-25c-2.7-2.7-2.7-7.2 0-9.9s7.2-2.7 9.9 0l24.9 25c2.7 2.7 2.7 7.2 0 9.9-1.3 1.4-3.1 2.1-4.9 2.1z" fill="#fff"/><path d="m260.9 434.5c-16 0-29-13-29-29s13-29 29-29 29 13 29 29-13 29-29 29zm0-48c-10.5 0-19 8.5-19 19s8.5 19 19 19 19-8.5 19-19-8.5-19-19-19z" fill="#141f33"/><path d="m441.6 410.5h-126.4c-2.8 0-5-2.2-5-5s2.2-5 5-5h126.4c2.8 0 5 2.2 5 5s-2.2 5-5 5z" fill="#141f33"/><path d="m144.8 90.9c-1.8 0-3.6-.7-4.9-2.1-2.7-2.7-2.7-7.2 0-9.9l24.9-24.9c2.7-2.7 7.2-2.7 9.9 0s2.7 7.2 0 9.9l-24.9 24.9c-1.4 1.4-3.2 2.1-5 2.1z" fill="#fff"/><path d="m92.8 142.9c-1.8 0-3.6-.7-4.9-2.1-2.7-2.7-2.7-7.2 0-9.9l24.9-24.9c2.7-2.7 7.2-2.7 9.9 0s2.7 7.2 0 9.9l-24.9 24.9c-1.4 1.4-3.2 2.1-5 2.1z" fill="#fff"/><path d="m117.6 91c-1.8 0-3.6-.7-4.9-2.1l-24.9-24.9c-2.7-2.7-2.7-7.2 0-9.9s7.2-2.7 9.9 0l24.9 24.9c2.7 2.7 2.7 7.2 0 9.9-1.4 1.4-3.2 2.1-5 2.1z" fill="#fff"/><path d="m169.7 142.9c-1.8 0-3.6-.7-4.9-2.1l-24.9-24.9c-2.7-2.7-2.7-7.2 0-9.9s7.2-2.7 9.9 0l24.9 24.9c2.7 2.7 2.7 7.2 0 9.9-1.4 1.4-3.2 2.1-5 2.1z" fill="#fff"/><path d="m63.1 126.5c-16 0-29-13-29-29s13-29 29-29 29 13 29 29-13 29-29 29zm0-48c-10.5 0-19 8.5-19 19s8.5 19 19 19 19-8.5 19-19-8.5-19-19-19z" fill="#141f33"/><path d="m243.8 102.5h-126.4c-2.8 0-5-2.2-5-5s2.2-5 5-5h126.4c2.8 0 5 2.2 5 5s-2.2 5-5 5z" fill="#141f33"/><path d="m162.1 284.5c-16 0-29-13-29-29s13-29 29-29 29 13 29 29-13 29-29 29zm0-48c-10.5 0-19 8.5-19 19s8.5 19 19 19 19-8.5 19-19-8.5-19-19-19z" fill="#141f33"/><path d="m342.9 260.5h-126.5c-2.8 0-5-2.2-5-5s2.2-5 5-5h126.5c2.8 0 5 2.2 5 5s-2.2 5-5 5z" fill="#141f33"/><g fill="#fff"><path d="m256 350.4c-52.1 0-94.4-42.3-94.4-94.4s42.3-94.4 94.4-94.4 94.4 42.3 94.4 94.4-42.3 94.4-94.4 94.4zm0-173.8c-43.8 0-79.4 35.6-79.4 79.4s35.6 79.4 79.4 79.4 79.4-35.6 79.4-79.4-35.6-79.4-79.4-79.4z"/><path d="m256 232.9c-4.1 0-7.5-3.4-7.5-7.5v-56.3c0-4.1 3.4-7.5 7.5-7.5s7.5 3.4 7.5 7.5v56.3c0 4.1-3.4 7.5-7.5 7.5z"/><path d="m256 350.4c-4.1 0-7.5-3.4-7.5-7.5v-56.3c0-4.1 3.4-7.5 7.5-7.5s7.5 3.4 7.5 7.5v56.3c0 4.1-3.4 7.5-7.5 7.5z"/><path d="m225.4 263.7h-56.3c-4.1 0-7.5-3.4-7.5-7.5s3.4-7.5 7.5-7.5h56.3c4.1 0 7.5 3.4 7.5 7.5s-3.4 7.5-7.5 7.5z"/><path d="m342.9 263.5h-56.3c-4.1 0-7.5-3.4-7.5-7.5s3.4-7.5 7.5-7.5h56.3c4.1 0 7.5 3.4 7.5 7.5s-3.4 7.5-7.5 7.5z"/></g></svg>