<svg enable-background="new 0 0 512 512" viewBox="0 0 512 512" xmlns="http://www.w3.org/2000/svg"><path d="m474.9 505.6h-437.8c-16.6 0-30.1-13.5-30.1-30.1v-438.3c0-16.6 13.5-30.1 30.1-30.1h437.8c16.6 0 30.1 13.5 30.1 30.1v438.3c0 16.6-13.5 30.1-30.1 30.1z" fill="none" stroke="#fff" stroke-miterlimit="10" stroke-width="5"/><path d="m62.5 170.7c-22.6 0-40.9-18.3-40.9-40.9s18.3-40.9 40.9-40.9 40.9 18.3 40.9 40.9-18.3 40.9-40.9 40.9zm0-64.8c-13.2 0-23.9 10.7-23.9 23.9s10.7 23.9 23.9 23.9 23.9-10.7 23.9-23.9-10.7-23.9-23.9-23.9z" fill="#fff"/><path d="m299.7 138.3h-170.8c-4.7 0-8.5-3.8-8.5-8.5s3.8-8.5 8.5-8.5h170.8c4.7 0 8.5 3.8 8.5 8.5s-3.8 8.5-8.5 8.5z" fill="#fff"/><path d="m346.5 149.2h-6v-39.7l-12 4.4v-5.4l17.1-6.4h.9z" fill="#fff"/><path d="m349.5 152.2h-12v-38.5l-12 4.4v-11.8l19.5-7.3h4.5z" fill="#fff"/><path d="m346.9 149.5h-6.7v-39.5l-12 4.4v-6.2l17.5-6.5h1.3zm-6-.7h5.2v-46.4h-.5l-16.8 6.3v4.6l12-4.4z" fill="#fff"/><path d="m349.9 152.5h-12.8v-38.2l-12 4.4v-12.6l19.9-7.5h4.9z" fill="#fff"/><path d="m364.4 146c0-1 .3-1.9.9-2.6s1.5-1 2.8-1c1.2 0 2.2.3 2.8 1s1 1.5 1 2.6c0 1-.3 1.8-1 2.5s-1.6 1-2.8 1-2.1-.3-2.8-1c-.6-.6-.9-1.5-.9-2.5zm0-28.4c0-1 .3-1.9.9-2.6s1.5-1 2.8-1c1.2 0 2.2.3 2.8 1s1 1.5 1 2.6c0 1-.3 1.8-1 2.5s-1.6 1-2.8 1-2.1-.3-2.8-1c-.6-.7-.9-1.5-.9-2.5z" fill="#fff"/><path d="m368 152.5c-2.6 0-4.1-1.1-5-2-1.1-1.2-1.7-2.8-1.7-4.5 0-1.8.6-3.3 1.7-4.6.8-.9 2.4-2 5-2s4.2 1.1 5 2c1.1 1.2 1.7 2.8 1.7 4.6s-.6 3.3-1.8 4.6c-.7.9-2.3 1.9-4.9 1.9zm-.5-6h.6c.5 0 .6-.1.6-.1s.1-.1.1-.4c0-.4-.1-.5-.2-.5 0 0-.2-.1-.6-.1s-.6.1-.6.1-.1.1-.1.5c.1.3.1.4.2.5zm.6-22.4c-2.6 0-4.1-1.1-5-2-1.1-1.2-1.7-2.8-1.7-4.5 0-1.8.6-3.3 1.7-4.6.8-.9 2.4-2 5-2s4.2 1.1 5 2c1.1 1.2 1.7 2.8 1.7 4.6s-.6 3.3-1.8 4.6c-.8.8-2.3 1.9-4.9 1.9zm-.6-6.1h.6c.5 0 .6-.1.6-.1s.1-.1.1-.4c0-.4-.1-.5-.2-.5 0 0-.2-.1-.6-.1s-.6.1-.6.1-.1.1-.1.5c.1.4.2.5.2.5z" fill="#fff"/><path d="m368 149.9c-1.3 0-2.3-.4-3-1.1s-1-1.7-1-2.7c0-1.1.3-2.1 1-2.8.7-.8 1.7-1.2 3-1.2s2.4.4 3.1 1.2 1.1 1.7 1.1 2.8-.4 2-1.1 2.7-1.7 1.1-3.1 1.1zm0-7.1c-1.1 0-1.9.3-2.5.9s-.8 1.4-.8 2.3.3 1.6.8 2.2 1.4.9 2.5.9 2-.3 2.5-.9c.6-.6.8-1.3.8-2.2s-.3-1.7-.9-2.3c-.4-.6-1.2-.9-2.4-.9zm.1-21.4c-1.3 0-2.3-.4-3-1.1s-1-1.7-1-2.7c0-1.1.3-2.1 1-2.8.7-.8 1.7-1.2 3-1.2s2.4.4 3.1 1.2 1.1 1.7 1.1 2.8-.4 2-1.1 2.7c-.8.8-1.8 1.1-3.1 1.1zm0-7.1c-1.1 0-1.9.3-2.5.9s-.8 1.4-.8 2.3.3 1.6.8 2.2 1.4.9 2.5.9 2-.3 2.5-.9c.6-.6.8-1.3.8-2.2s-.3-1.7-.9-2.3c-.5-.6-1.3-.9-2.4-.9z" fill="#fff"/><path d="m368 152.9c-2.7 0-4.4-1.1-5.2-2.1-1.2-1.3-1.8-2.9-1.8-4.8s.6-3.5 1.8-4.8c.9-1 2.5-2.2 5.3-2.2 2.7 0 4.4 1.2 5.3 2.1 1.2 1.3 1.8 3 1.8 4.9s-.7 3.5-1.9 4.8c-.9 1-2.5 2.1-5.3 2.1zm-.3-6.8h.7s0 0 0-.1 0-.2 0-.2c-.1 0-.5 0-.6 0 0 .1-.1.1-.1.3zm.4-21.7c-2.7 0-4.4-1.1-5.2-2.1-1.2-1.3-1.8-2.9-1.8-4.8s.6-3.5 1.8-4.8c.9-1 2.5-2.2 5.3-2.2 2.7 0 4.4 1.2 5.3 2.1 1.2 1.3 1.8 3 1.8 4.9s-.7 3.5-1.9 4.8c-1 1-2.6 2.1-5.3 2.1zm-.3-6.7h.7s0 0 0-.1 0-.2 0-.2c-.1 0-.5 0-.6 0s-.1.1-.1.3c0-.1 0-.1 0 0z" fill="#fff"/><path d="m409.4 129.2c0 7-1.2 12.2-3.6 15.6s-6.1 5.1-11.2 5.1c-5 0-8.7-1.7-11.1-5s-3.7-8.3-3.7-14.9v-8c0-6.9 1.2-12 3.6-15.4s6.1-5 11.2-5 8.8 1.6 11.2 4.9 3.6 8.2 3.7 15v7.7zm-6-8.2c0-5-.7-8.7-2.1-11s-3.7-3.5-6.7-3.5c-3.1 0-5.3 1.2-6.7 3.5s-2.1 5.8-2.2 10.6v9.5c0 5.1.7 8.8 2.2 11.2s3.7 3.6 6.7 3.6c2.9 0 5.1-1.1 6.6-3.4 1.4-2.3 2.2-5.9 2.2-10.8z" fill="#fff"/><path d="m394.6 152.8c-6 0-10.6-2.1-13.5-6.2-2.8-3.9-4.2-9.3-4.3-16.6v-8c0-7.6 1.4-13.2 4.1-17.1 3-4.2 7.6-6.3 13.7-6.3 6 0 10.6 2 13.6 6.1 2.8 3.8 4.2 9.3 4.3 16.7v7.8c0 7.7-1.3 13.3-4.1 17.3-3.1 4.2-7.7 6.3-13.8 6.3zm-.1-43.3c-2.6 0-3.5 1.1-4.1 2-.8 1.3-1.7 3.8-1.7 9.1v9.5c0 5.6 1 8.3 1.8 9.7.9 1.5 2.2 2.2 4.1 2.2s3.1-.6 4-2c.8-1.2 1.7-3.8 1.8-9.2v-9.8c0-5.6-.9-8.2-1.7-9.5-.6-.9-1.6-2-4.2-2z" fill="#fff"/><path d="m394.6 150.2c-5.1 0-9-1.7-11.4-5.1s-3.7-8.4-3.8-15.1v-8c0-6.9 1.2-12.2 3.6-15.6s6.3-5.2 11.5-5.2 9 1.7 11.5 5c2.4 3.3 3.7 8.4 3.7 15.2v7.7c0 7-1.2 12.3-3.6 15.8s-6.3 5.3-11.5 5.3zm-.1-48.2c-4.9 0-8.6 1.6-10.9 4.9s-3.5 8.4-3.5 15.2v8c.1 6.5 1.3 11.4 3.7 14.7 2.3 3.2 6 4.8 10.8 4.8 4.9 0 8.6-1.7 10.9-4.9 2.3-3.3 3.5-8.5 3.5-15.4v-7.7c-.1-6.6-1.3-11.6-3.6-14.8-2.3-3.3-6-4.8-10.9-4.8zm.1 43.3c-3.1 0-5.5-1.3-7-3.8s-2.3-6.3-2.3-11.4v-9.5c0-4.8.8-8.5 2.2-10.8 1.5-2.4 3.8-3.6 7-3.6s5.6 1.2 7.1 3.6c1.4 2.4 2.2 6.1 2.2 11.2v9.8c-.1 5-.8 8.6-2.3 11-1.5 2.3-3.8 3.5-6.9 3.5zm-.1-38.4c-2.9 0-5 1.1-6.4 3.3s-2.1 5.7-2.1 10.4v9.5c0 5 .7 8.7 2.2 11 1.4 2.3 3.5 3.4 6.4 3.4 2.8 0 4.9-1.1 6.2-3.2 1.4-2.2 2.1-5.8 2.2-10.6v-9.7c0-5-.7-8.6-2.1-10.8-1.3-2.3-3.4-3.3-6.4-3.3z" fill="#fff"/><path d="m394.6 153.2c-6 0-10.8-2.2-13.9-6.4-2.8-3.9-4.3-9.5-4.4-16.8v-8c0-7.6 1.4-13.4 4.2-17.3 3-4.2 7.8-6.4 14-6.4 6.1 0 10.9 2.2 13.9 6.2 2.8 3.8 4.3 9.5 4.3 16.9v7.8c0 7.7-1.4 13.6-4.2 17.5-2.9 4.2-7.8 6.5-13.9 6.5zm-.1-43.3c-2.4 0-3.2.9-3.8 1.8-.7 1.2-1.6 3.7-1.7 8.9v9.5c0 5.5.9 8.2 1.7 9.5.9 1.4 2 2 3.8 2s2.9-.5 3.7-1.8c.7-1.2 1.7-3.7 1.7-9v-9.8c0-5.5-.9-8.1-1.6-9.3-.5-.9-1.4-1.8-3.8-1.8z" fill="#fff"/><path d="m434.7 152.8c-6 0-10.6-2.1-13.5-6.2-2.8-3.9-4.2-9.3-4.3-16.6v-8c0-7.6 1.4-13.2 4.1-17.1 3-4.2 7.6-6.3 13.7-6.3 6 0 10.6 2 13.6 6.1 2.8 3.8 4.2 9.3 4.3 16.7v7.8c0 7.7-1.3 13.3-4.1 17.3-3.1 4.2-7.7 6.3-13.8 6.3zm-.1-43.3c-2.6 0-3.5 1.1-4.1 2-.8 1.3-1.7 3.8-1.7 9.1v9.5c0 5.6 1 8.3 1.8 9.7.9 1.5 2.2 2.2 4.1 2.2s3.1-.6 4-2c.8-1.2 1.7-3.8 1.8-9.2v-9.8c0-5.6-.9-8.2-1.7-9.5-.6-.9-1.6-2-4.2-2z" fill="#fff"/><path d="m445.4 245.3c-3.3 3.3-7 4.8-11.1 4.6s-7.8-2-11.2-5.4l5.6-5.6c1.7 1.7 3.5 2.6 5.2 2.6 1.8 0 3.4-.8 5.1-2.5 1.6-1.6 2.3-3.3 2.2-5.1-.1-1.6-.9-3.4-2.5-5.1l5.6-5.6c1.5 1.3 3.1 2 4.6 2.1 1.7.1 3.3-.6 4.7-2 3.3-3.3 3.3-6.2 0-9.5l5.6-5.6c3.4 3.4 5.2 7 5.3 10.8.1 3.9-1.4 7.4-4.7 10.7-1.7 1.7-3.8 2.7-6.4 3.2-1.5.3-3.1.3-4.6 0 .5 1.7.6 3.4.3 5-.2 2.8-1.5 5.2-3.7 7.4z" fill="#141f33"/><path d="m435 251.4c-.3 0-.5 0-.8 0-4.4-.2-8.5-2.2-12.2-5.8l-1.1-1.1 7.7-7.7 1.1 1.1c1.4 1.4 2.8 2.2 4.1 2.2 1.4 0 2.6-.6 4-2.1 1.3-1.3 1.8-2.6 1.8-4-.1-1.3-.8-2.8-2.1-4.2l-1-1.1 7.6-7.6 1.1.9c1.2 1.1 2.5 1.7 3.7 1.7 1.2.1 2.4-.5 3.5-1.6 1.4-1.4 2-2.6 2-3.7s-.7-2.3-2-3.7l-1.1-1.1 7.7-7.7 1.1 1.1c3.7 3.7 5.6 7.7 5.7 11.8.1 4.4-1.6 8.2-5.1 11.8-1.9 1.9-4.2 3-7.2 3.6-1 .2-2 .3-3 .2.1 1.2.1 2.3-.1 3.5-.2 3-1.6 5.7-4.1 8.3-3.2 3.5-7 5.2-11.3 5.2zm-9.7-6.9c2.8 2.5 5.8 3.8 9.1 3.9 3.7.2 7-1.2 10-4.2 2-2 3.1-4.1 3.3-6.4v-.2c.3-1.4.2-2.8-.3-4.3l-.7-2.4 2.4.5c1.3.3 2.7.3 4 0 2.4-.5 4.2-1.3 5.6-2.8 3-3 4.4-6.1 4.3-9.6-.1-3-1.4-5.9-3.8-8.7l-3.5 3.5c1.3 1.6 1.9 3.1 1.9 4.7 0 1.9-1 3.8-2.9 5.8-1.7 1.7-3.8 2.6-5.8 2.4-1.5-.1-3-.6-4.4-1.6l-3.7 3.7c1.2 1.6 1.9 3.3 2 4.9.1 2.3-.8 4.4-2.6 6.3-2 2-4 2.9-6.2 2.9-1.7 0-3.5-.7-5.1-2z" fill="#141f33"/><path d="m490.8 247.5c.7-4.5-1-8.7-4.9-12.6s-8.3-5.6-12.8-4.8c-4.4.7-9.1 3.7-14.2 8.8l-5.6 5.6c-4.8 4.9-7.6 9.6-8.3 14-.7 4.5.9 8.8 4.8 12.7s8.3 5.5 12.8 4.7c4.4-.8 9.2-3.8 14.3-8.9l5.5-5.5c5-5.1 7.8-9.7 8.4-14zm-21.3 14.3c-3.3 3.2-6.1 5.1-8.5 5.6-2.1.5-4-.1-5.7-1.8s-2.3-3.7-1.8-5.9c.6-2.5 2.6-5.4 6-8.8l6.7-6.7c3.2-3.1 6-5 8.3-5.6 2.1-.5 4 .1 5.7 1.9 1.8 1.8 2.4 3.7 1.9 5.8-.6 2.3-2.5 5.2-5.9 8.6z" fill="#141f33"/><path d="m460.4 277.6c-4.1 0-8.1-1.8-11.6-5.3-4.2-4.2-6-9-5.2-14 .7-4.7 3.7-9.7 8.7-14.8l5.6-5.6c5.5-5.5 10.4-8.5 15-9.2 4.9-.9 9.8.9 14.1 5.2s6.1 9 5.3 13.9c-.6 4.6-3.5 9.4-8.8 14.8l-5.5 5.5c-5.3 5.3-10.4 8.5-15.1 9.3-.9.1-1.7.2-2.5.2zm14.8-46.2c-.6 0-1.3.1-1.9.2-4 .6-8.4 3.4-13.4 8.4l-5.6 5.6c-4.6 4.7-7.2 9.1-7.9 13.2-.6 4 .8 7.9 4.4 11.4 3.6 3.6 7.4 5 11.5 4.3s8.6-3.6 13.5-8.5l5.5-5.5c4.8-4.9 7.4-9.2 8-13.1.6-4-.8-7.7-4.5-11.3-3-3.1-6.2-4.7-9.6-4.7zm-15.6 37.7c-1.9 0-3.8-.8-5.4-2.4-2.1-2.1-2.8-4.6-2.2-7.3.7-2.8 2.8-5.9 6.4-9.5l6.7-6.7c3.4-3.3 6.4-5.3 9-6 2.7-.6 5.1.2 7.2 2.3s2.9 4.5 2.3 7.2c-.7 2.7-2.8 5.8-6.3 9.3l-6.7 6.9c-3.6 3.5-6.6 5.4-9.2 6-.7.1-1.2.2-1.8.2zm16.3-29.2c-.3 0-.7 0-1 .1-1.4.4-3.8 1.6-7.6 5.2l-6.7 6.7c-3.2 3.2-5.1 5.9-5.6 8.1-.4 1.7.1 3.2 1.4 4.5s2.7 1.8 4.3 1.4c2.1-.4 4.7-2.2 7.8-5.2l6.7-6.9c3.9-3.9 5.1-6.4 5.5-7.9.4-1.6-.1-2.9-1.5-4.4-1.1-1-2.2-1.6-3.3-1.6z" fill="#141f33"/><path d="m296.2 256.6c0-9.2-1.7-15.4-5.1-19.1-2.9-3.1-6.3-4.6-10.1-4.6s-7.5 1.7-10.9 4.9c-3.7 3.4-5.7 7.3-6 11.5-.3 4.3 1.2 8.2 4.5 11.6l1 1.1 6.6-6.1-1-1.1c-1.8-1.9-2.6-3.8-2.6-5.8s1-3.7 2.9-5.5c1.5-1.4 3.1-2 4.8-1.9 1.8.1 3.3.9 4.7 2.4 1.1 1.2 1.8 2.5 2.2 4.2.5 1.8.7 4.4.8 7.9l.4 24.9 4.3 4.7 24.8-22.9-5.3-5.8-15.9 14.7z" fill="#141f33"/><path d="m292.6 287.8-5.7-6.2-.4-25.5c-.1-3.8-.3-6-.7-7.5-.3-1.5-.9-2.6-1.9-3.6-1.2-1.2-2.3-1.8-3.7-1.9-1.3-.1-2.5.4-3.7 1.5-1.7 1.6-2.4 2.9-2.4 4.4 0 1.7.7 3.2 2.2 4.8l2 2.2-8.8 8.1-2-2.2c-3.6-3.7-5.2-8-4.9-12.7.3-4.6 2.5-8.9 6.5-12.5 3.7-3.5 7.7-5.3 11.9-5.3 4.3 0 8 1.7 11.2 5.1 3.7 4 5.5 10.6 5.5 20.1l.1 11.7 14.5-13.4 7.3 8zm-2.7-7.4 2.9 3.2 22.6-20.9-3.3-3.6-17.3 16-.1-18.5c0-8.7-1.5-14.6-4.7-18.1-2.6-2.7-5.6-4.1-9-4.1s-6.7 1.5-9.9 4.5c-3.4 3.1-5.3 6.7-5.5 10.5-.3 3.9 1.1 7.4 4.1 10.4l4.4-4.1c-2-2.1-3-4.4-3-6.8 0-2.3 1.1-4.4 3.4-6.6 1.8-1.7 3.8-2.4 5.9-2.3s4 1.1 5.7 2.9c1.3 1.4 2.1 3 2.6 4.9.5 1.7.7 4.1.8 8.2z" fill="#141f33"/><path d="m317.3 249.6c-1.2 1.1-1.8 2.4-1.8 3.8 0 1.3.5 2.5 1.5 3.5.9 1 2.1 1.6 3.3 1.7 1.3.1 2.6-.4 3.8-1.5s1.8-2.4 1.8-3.7-.5-2.5-1.4-3.5c-1-1-2.1-1.6-3.4-1.7-1.2-.2-2.5.3-3.8 1.4z" fill="#141f33"/><path d="m320.6 260.1c-.1 0-.3 0-.4 0-1.6-.1-3.2-.9-4.3-2.2-1.2-1.2-1.9-2.8-1.9-4.5 0-1.8.8-3.5 2.3-4.9 2.1-1.7 3.8-1.9 4.9-1.7 1.6.1 3 .8 4.3 2.1 1.2 1.4 1.8 2.9 1.8 4.6s-.8 3.5-2.3 4.8c-1.3 1.2-2.8 1.8-4.4 1.8zm-2.3-9.4c-.9.8-1.3 1.7-1.3 2.7 0 .9.4 1.7 1.1 2.4.7.8 1.5 1.2 2.4 1.3s1.8-.3 2.7-1.1 1.3-1.7 1.3-2.6-.3-1.7-1-2.5c-.7-.7-1.5-1.1-2.4-1.2h-.1c-1-.2-2 .5-2.7 1z" fill="#141f33"/><path d="m298 228.7c-1.2 1.1-1.8 2.4-1.8 3.8 0 1.3.5 2.5 1.5 3.5.9 1 2.1 1.6 3.3 1.7 1.3.1 2.6-.4 3.8-1.5s1.8-2.4 1.8-3.7-.5-2.5-1.4-3.5c-1-1-2.1-1.6-3.4-1.7-1.3-.2-2.6.3-3.8 1.4z" fill="#141f33"/><path d="m301.3 239.2c-.1 0-.3 0-.4 0-1.6-.1-3.2-.9-4.3-2.2-1.2-1.2-1.9-2.8-1.9-4.5 0-1.8.8-3.5 2.3-4.9 1.5-1.4 3.3-2 5-1.8 1.6.1 3 .8 4.3 2.1 1.2 1.4 1.8 2.9 1.8 4.6s-.8 3.5-2.3 4.8c-1.4 1.3-2.9 1.9-4.5 1.9zm-.1-10.4c-.7 0-1.5.4-2.2 1-.9.8-1.3 1.7-1.3 2.7 0 .9.4 1.7 1.1 2.4.7.8 1.5 1.2 2.4 1.3s1.8-.3 2.7-1.1 1.3-1.7 1.3-2.6-.3-1.7-1-2.5c-.7-.7-1.5-1.1-2.4-1.2h-.1c-.2 0-.3 0-.5 0z" fill="#141f33"/><path d="m308.6 202 5.4 5.8c-1.6 1.5-2.5 3.1-2.6 4.8s.5 3.3 1.9 4.7l1 1.1-6.6 6.1-1-1.1c-2.8-3-4-6.6-3.7-10.7.3-3.9 2.2-7.6 5.6-10.7z" fill="#141f33"/><path d="m307.6 226.6-2-2.2c-3-3.3-4.4-7.2-4.1-11.8.3-4.3 2.4-8.4 6.1-11.7l1.1-1 7.4 8-1.1 1c-1.3 1.3-2.1 2.5-2.1 3.8-.1 1.3.4 2.5 1.5 3.6l2 2.3zm1-22.5c-2.4 2.6-3.8 5.5-4.1 8.7-.3 3.8.8 6.9 3.3 9.6l4.4-4.1c-1.6-1.6-2.4-3.6-2.3-5.8.1-1.6.8-3.2 2-4.7z" fill="#141f33"/><path d="m322.4 218.2c.2-.2.4-.4.6-.6l5.4 5.8c-.2.2-.4.4-.7.6l-4.4 4.1-5.4-5.8z" fill="#141f33"/><path d="m323.2 230.2-7.5-8 6.2-5.7 1.1-1.1 7.4 8-1 1c-.2.2-.5.5-.8.7zm-3.2-7.8 3.3 3.6 2.9-2.7-3.3-3.6z" fill="#141f33"/><path d="m332.8 236.2c1.8 0 3.5-.8 5.2-2.4l5.4 5.8c-3.5 3.2-7.3 4.9-11.3 5.1-4.1.1-7.7-1.4-10.6-4.6l-1-1.1 6.6-6.1 1 1.1c1.4 1.5 2.9 2.2 4.7 2.2z" fill="#141f33"/><path d="m331.7 246.2c-4.5 0-8.3-1.7-11.4-5.1l-2-2.2 8.8-8.1 2 2.2c1.1 1.2 2.2 1.7 3.6 1.7s2.7-.7 4.2-2l1.1-1 7.5 8-1.1 1c-3.7 3.4-7.9 5.3-12.2 5.5-.2 0-.3 0-.5 0zm-9.1-7.1c2.6 2.8 5.7 4.2 9.5 4.1 3.2-.2 6.3-1.4 9.2-3.7l-3.4-3.6c-1.6 1.2-3.3 1.8-5.1 1.8-2.2 0-4.1-.9-5.8-2.7z" fill="#141f33"/><g fill="#fff"><path d="m92.7 379.9c-18.5 0-33.5-15-33.5-33.5s15-33.5 33.5-33.5 33.5 15 33.5 33.5-15 33.5-33.5 33.5zm0-52c-10.2 0-18.5 8.3-18.5 18.5s8.3 18.5 18.5 18.5 18.5-8.3 18.5-18.5-8.3-18.5-18.5-18.5z"/><path d="m288.7 353.9h-137.1c-4.1 0-7.5-3.4-7.5-7.5s3.4-7.5 7.5-7.5h137.1c4.1 0 7.5 3.4 7.5 7.5s-3.4 7.5-7.5 7.5z"/><path d="m326.2 361.9h-4.8v-31.9l-9.6 3.5v-4.3l13.7-5.1h.7z"/><path d="m328.2 363.9h-8.8v-31l-9.6 3.5v-8.6l15.3-5.8h3.1zm-4.8-4h.8v-33.2l-10.5 3.9v.1l9.6-3.5v32.7z"/><path d="m326.5 362.2h-5.4v-31.8l-9.6 3.5v-5l14-5.2h1.1v38.5zm-4.8-.6h4.2v-37.2h-.4l-13.5 5.1v3.7l9.6-3.5z"/><path d="m328.5 364.2h-9.4v-30.9l-9.6 3.5v-9.2l15.6-5.9h3.4zm-4.8-4.6h.2v-32.5l-.2.1z"/><path d="m340.5 359.4c0-.8.2-1.5.7-2.1s1.2-.8 2.2-.8 1.7.3 2.2.8c.5.6.8 1.2.8 2.1 0 .8-.3 1.5-.8 2s-1.3.8-2.2.8c-1 0-1.7-.3-2.2-.8-.4-.5-.7-1.2-.7-2zm0-22.8c0-.8.2-1.5.7-2.1s1.2-.8 2.2-.8 1.7.3 2.2.8c.5.6.8 1.2.8 2.1 0 .8-.3 1.5-.8 2s-1.3.8-2.2.8c-1 0-1.7-.3-2.2-.8-.4-.5-.7-1.2-.7-2z"/><path d="m343.5 364.2c-1.9 0-3.1-.8-3.7-1.4-.8-.9-1.3-2.1-1.3-3.3 0-1.3.4-2.5 1.2-3.4.6-.7 1.7-1.5 3.7-1.5 1.9 0 3.1.8 3.7 1.5.8.9 1.3 2.1 1.3 3.4s-.5 2.5-1.3 3.4c-.6.6-1.7 1.3-3.6 1.3zm0-5.7c-.4 0-.6.1-.7.2s-.2.3-.2.7.1.5.2.6.3.2.7.2.7-.1.8-.2.2-.3.2-.6c0-.4-.1-.6-.2-.7-.2-.1-.7-.2-.8-.2zm0-17.1c-1.9 0-3.1-.8-3.7-1.4-.8-.9-1.3-2.1-1.3-3.3 0-1.3.4-2.5 1.2-3.4.6-.7 1.7-1.5 3.7-1.5 1.9 0 3.1.8 3.7 1.5.8.9 1.3 2.1 1.3 3.4s-.5 2.5-1.3 3.4c-.5.5-1.7 1.3-3.6 1.3zm0-5.7c-.4 0-.6.1-.7.2s-.2.3-.2.7.1.5.2.6.3.2.7.2.7-.1.8-.2.2-.3.2-.6c0-.4-.1-.6-.2-.7-.2-.2-.6-.2-.8-.2z"/><path d="m343.5 362.5c-1.1 0-1.9-.3-2.4-.9s-.8-1.3-.8-2.2.3-1.7.8-2.3 1.4-.9 2.4-.9c1.1 0 1.9.3 2.5.9s.8 1.4.8 2.3-.3 1.6-.8 2.2c-.6.6-1.5.9-2.5.9zm0-5.7c-.9 0-1.6.2-2 .7s-.7 1.1-.7 1.9c0 .7.2 1.3.7 1.8.4.5 1.1.7 2 .7s1.6-.2 2-.7c.5-.5.7-1.1.7-1.8 0-.8-.2-1.4-.7-1.9-.5-.4-1.1-.7-2-.7zm0-17.1c-1.1 0-1.9-.3-2.4-.9s-.8-1.3-.8-2.2.3-1.7.8-2.3 1.4-.9 2.4-.9c1.1 0 1.9.3 2.5.9s.8 1.4.8 2.3-.3 1.6-.8 2.2c-.6.6-1.4.9-2.5.9zm0-5.7c-.9 0-1.6.2-2 .7s-.7 1.1-.7 1.9c0 .7.2 1.3.7 1.8.4.5 1.1.7 2 .7s1.6-.2 2-.7c.5-.5.7-1.1.7-1.8 0-.8-.2-1.4-.7-1.9-.4-.5-1.1-.7-2-.7z"/><path d="m343.5 364.5c-2.1 0-3.3-.8-3.9-1.5-.9-1-1.3-2.2-1.3-3.6s.5-2.6 1.3-3.6c.7-.7 1.9-1.6 3.9-1.6 2.1 0 3.3.9 3.9 1.6.9 1 1.4 2.2 1.4 3.6s-.5 2.6-1.4 3.6c-.7.7-1.9 1.5-3.9 1.5zm-.6-4.6s.2.1.5.1c.4 0 .6-.1.6-.1.1-.1.1-.1.1-.4s-.1-.4-.2-.5c0 0-.2-.1-.5-.1-.4 0-.5.1-.5.1 0 .1-.1.2-.1.5 0 .2.1.3.1.4zm.6-18.2c-2.1 0-3.3-.8-3.9-1.5-.9-1-1.3-2.2-1.3-3.5 0-1.4.5-2.6 1.3-3.6.6-.7 1.9-1.6 3.9-1.6 2.1 0 3.3.9 3.9 1.6.9 1 1.4 2.2 1.4 3.6s-.5 2.6-1.4 3.6c-.7.6-1.9 1.4-3.9 1.4zm-.5-4.7s.2.1.5.1c.4 0 .6-.1.6-.1.1-.1.1-.1.1-.4s-.1-.4-.2-.5c0 0-.2-.1-.5-.1-.4 0-.5.1-.5.1 0 .1-.1.2-.1.5-.1.3 0 .4.1.4z"/><path d="m376.6 345.9c0 5.6-1 9.8-2.9 12.5s-4.9 4.1-9 4.1c-4 0-7-1.3-8.9-4s-2.9-6.6-3-11.9v-6.4c0-5.5 1-9.6 2.9-12.3s4.9-4 9-4 7 1.3 8.9 3.9 2.9 6.6 2.9 12v6.1zm-4.8-6.6c0-4.1-.6-7-1.7-8.9s-2.9-2.8-5.4-2.8c-2.4 0-4.2.9-5.4 2.8-1.1 1.8-1.7 4.7-1.7 8.5v7.7c0 4.1.6 7.1 1.8 9s3 2.9 5.4 2.9 4.1-.9 5.3-2.7c1.1-1.8 1.7-4.7 1.8-8.6z"/><path d="m364.8 364.5c-4.7 0-8.2-1.6-10.5-4.8-2.2-3-3.3-7.3-3.4-13.1v-6.4c0-6 1.1-10.4 3.2-13.5 2.3-3.2 5.9-4.9 10.6-4.9s8.3 1.6 10.6 4.7c2.2 3 3.3 7.3 3.3 13.2v6.2c0 6.1-1.1 10.5-3.2 13.6-2.3 3.3-5.9 5-10.6 5zm-2.3-38.6c-2.3.4-4 1.4-5.2 3-1.7 2.3-2.5 6.1-2.5 11.2v6.4c.1 4.8.9 8.5 2.6 10.8 1.2 1.6 2.8 2.6 4.9 3-2-.5-3.6-1.7-4.7-3.6-1.4-2.3-2.1-5.6-2.1-10.1v-7.6c0-4.3.7-7.4 2-9.5 1.3-1.9 2.9-3.1 5-3.6zm4.4 0c2.1.5 3.8 1.7 4.9 3.5 1.3 2.2 2 5.4 2 9.9v7.8c-.1 4.4-.7 7.5-2.1 9.7-1.1 1.7-2.6 2.9-4.5 3.4 2.1-.4 3.7-1.4 4.9-3 1.7-2.4 2.5-6.2 2.5-11.3v-6.2c0-4.9-.9-8.6-2.6-10.8-1.1-1.6-2.8-2.6-5.1-3zm-2.2 3.8c-2.3 0-3.2 1-3.6 1.8-.9 1.5-1.4 4-1.4 7.5v7.6c0 3.7.5 6.4 1.5 8 .8 1.3 1.9 2 3.7 2 1.7 0 2.8-.6 3.6-1.8.6-1 1.4-3.2 1.5-7.6v-7.8c0-4.6-.8-6.8-1.4-7.8-.7-.8-1.6-1.9-3.9-1.9z"/><path d="m364.8 362.8c-4.1 0-7.2-1.4-9.2-4.1s-3-6.8-3.1-12.1v-6.4c0-5.6 1-9.8 2.9-12.5 2-2.8 5.1-4.2 9.2-4.2s7.2 1.4 9.2 4c1.9 2.6 3 6.7 3 12.2v6.2c0 5.6-1 9.9-2.9 12.7-1.9 2.7-5 4.2-9.1 4.2zm-.1-38.7c-4 0-6.9 1.3-8.8 3.9s-2.8 6.7-2.8 12.2v6.4c.1 5.2 1.1 9.2 2.9 11.8 1.9 2.6 4.8 3.9 8.7 3.9s6.9-1.3 8.7-4c1.9-2.7 2.8-6.8 2.8-12.3v-6.2c-.1-5.3-1-9.3-2.9-11.8-1.7-2.7-4.6-3.9-8.6-3.9zm.1 34.8c-2.5 0-4.4-1-5.6-3.1-1.2-2-1.8-5.1-1.8-9.2v-7.6c0-3.9.6-6.8 1.8-8.7s3.1-2.9 5.6-2.9c2.6 0 4.5 1 5.7 2.9s1.8 4.9 1.8 9v7.8c-.1 4-.7 6.9-1.8 8.8-1.4 2-3.3 3-5.7 3zm-.1-30.9c-2.4 0-4 .9-5.1 2.6-1.1 1.8-1.7 4.6-1.7 8.4v7.7c0 4 .6 7 1.7 8.9s2.8 2.8 5.1 2.8 3.9-.9 5-2.6c1.1-1.8 1.7-4.6 1.8-8.5v-7.8c0-4-.6-6.9-1.7-8.7-1-1.9-2.7-2.8-5.1-2.8z"/><path d="m364.8 364.8c-4.8 0-8.4-1.7-10.8-4.9-2.2-3-3.4-7.5-3.4-13.3v-6.4c0-6 1.1-10.6 3.3-13.7 2.4-3.3 6-5 10.9-5 4.8 0 8.4 1.6 10.8 4.8 2.2 3 3.3 7.5 3.4 13.4v6.2c0 6.1-1.1 10.7-3.3 13.8-2.4 3.3-6.2 5.1-10.9 5.1zm-.1-34.8c-2.1 0-2.9.8-3.4 1.7-.6 1-1.4 3.1-1.4 7.3v7.6c0 4.5.8 6.7 1.4 7.8.8 1.3 1.8 1.8 3.4 1.8s2.6-.5 3.3-1.7c.6-1 1.4-3.1 1.4-7.4v-7.8c0-4.5-.7-6.6-1.4-7.7-.6-1.1-1.6-1.6-3.3-1.6zm-8.3 1.3c-.9 2.2-1.3 5.2-1.3 8.8v6.4c0 3.5.5 6.3 1.4 8.4-.8-2.2-1.2-4.9-1.2-8.3v-7.6c.1-3.1.4-5.7 1.1-7.7zm16.8.6c.6 2 .9 4.4.9 7.4v7.8c0 3-.4 5.4-1 7.3.8-2.2 1.2-5.1 1.2-8.6v-6.2c0-3-.4-5.6-1.1-7.7z"/><path d="m406.4 345.9c0 5.6-1 9.8-2.9 12.5s-4.9 4.1-9 4.1c-4 0-7-1.3-8.9-4s-2.9-6.6-3-11.9v-6.4c0-5.5 1-9.6 2.9-12.3s4.9-4 9-4 7 1.3 8.9 3.9 2.9 6.6 2.9 12v6.1zm-4.8-6.6c0-4.1-.6-7-1.7-8.9s-2.9-2.8-5.4-2.8c-2.4 0-4.2.9-5.4 2.8-1.1 1.8-1.7 4.7-1.7 8.5v7.7c0 4.1.6 7.1 1.8 9s3 2.9 5.4 2.9 4.1-.9 5.3-2.7c1.1-1.8 1.7-4.7 1.8-8.6z"/><path d="m394.5 364.5c-4.7 0-8.2-1.6-10.5-4.8-2.2-3-3.3-7.3-3.4-13.1v-6.4c0-6 1.1-10.4 3.2-13.5 2.3-3.2 5.9-4.9 10.6-4.9s8.3 1.6 10.6 4.7c2.2 3 3.3 7.3 3.3 13.2v6.2c0 6.1-1.1 10.5-3.2 13.6-2.3 3.3-5.9 5-10.6 5zm-2.2-38.6c-2.3.4-4 1.4-5.2 3-1.7 2.3-2.5 6.1-2.5 11.2v6.4c.1 4.8.9 8.5 2.6 10.8 1.2 1.6 2.8 2.6 4.9 3-2-.5-3.6-1.7-4.7-3.6-1.4-2.3-2.1-5.6-2.1-10.1v-7.6c0-4.3.7-7.4 2-9.5 1.2-1.9 2.9-3.1 5-3.6zm4.3 0c2.1.5 3.8 1.7 4.9 3.5 1.3 2.2 2 5.4 2 9.9v7.8c-.1 4.4-.7 7.5-2.1 9.7-1.1 1.7-2.6 2.9-4.5 3.4 2.1-.4 3.8-1.4 4.9-3 1.7-2.4 2.5-6.2 2.5-11.3v-6.2c0-4.9-.9-8.6-2.6-10.8-1.1-1.6-2.8-2.6-5.1-3zm-2.1 3.8c-2.3 0-3.2 1-3.6 1.8-.9 1.5-1.4 4-1.4 7.5v7.6c0 3.7.5 6.4 1.5 8 .8 1.3 1.9 2 3.7 2 1.7 0 2.8-.6 3.6-1.8.6-1 1.4-3.2 1.5-7.6v-7.8c0-4.6-.8-6.8-1.4-7.8-.7-.8-1.6-1.9-3.9-1.9z"/><path d="m394.5 362.8c-4.1 0-7.2-1.4-9.2-4.1s-3-6.8-3.1-12.1v-6.4c0-5.6 1-9.8 2.9-12.5 2-2.8 5.1-4.2 9.2-4.2s7.2 1.4 9.2 4c1.9 2.6 3 6.7 3 12.2v6.2c0 5.6-1 9.9-2.9 12.7-1.8 2.7-4.9 4.2-9.1 4.2zm0-38.7c-4 0-6.9 1.3-8.8 3.9s-2.8 6.7-2.8 12.2v6.4c.1 5.2 1.1 9.2 2.9 11.8 1.9 2.6 4.8 3.9 8.7 3.9s6.9-1.3 8.7-4c1.9-2.7 2.8-6.8 2.8-12.3v-6.2c-.1-5.3-1-9.3-2.9-11.8-1.8-2.7-4.7-3.9-8.6-3.9zm0 34.8c-2.5 0-4.4-1-5.6-3.1-1.2-2-1.8-5.1-1.8-9.2v-7.6c0-3.9.6-6.8 1.8-8.7s3.1-2.9 5.6-2.9c2.6 0 4.5 1 5.7 2.9s1.8 4.9 1.8 9v7.8c-.1 4-.7 6.9-1.8 8.8-1.4 2-3.2 3-5.7 3zm0-30.9c-2.4 0-4 .9-5.1 2.6-1.1 1.8-1.7 4.6-1.7 8.4v7.7c0 4 .6 7 1.7 8.9s2.8 2.8 5.1 2.8 3.9-.9 5-2.6c1.1-1.8 1.7-4.6 1.8-8.5v-7.8c0-4-.6-6.9-1.7-8.7-1.1-1.9-2.8-2.8-5.1-2.8z"/><path d="m394.5 364.8c-4.8 0-8.4-1.7-10.8-4.9-2.2-3-3.4-7.5-3.4-13.3v-6.4c0-6 1.1-10.6 3.3-13.7 2.4-3.3 6-5 10.9-5 4.8 0 8.4 1.6 10.8 4.8 2.2 3 3.3 7.5 3.4 13.4v6.2c0 6.1-1.1 10.7-3.3 13.8-2.4 3.3-6.1 5.1-10.9 5.1zm0-34.8c-2.1 0-2.9.8-3.4 1.7-.6 1-1.4 3.1-1.4 7.3v7.6c0 4.5.8 6.7 1.4 7.8.8 1.3 1.8 1.8 3.4 1.8s2.6-.5 3.3-1.7c.6-1 1.4-3.1 1.4-7.4v-7.8c0-4.5-.7-6.6-1.4-7.7-.6-1.1-1.7-1.6-3.3-1.6zm-8.3 1.3c-.9 2.2-1.3 5.2-1.3 8.8v6.4c0 3.5.5 6.3 1.4 8.4-.8-2.2-1.2-4.9-1.2-8.3v-7.6c0-3.1.4-5.7 1.1-7.7zm16.8.6c.6 2 .9 4.4.9 7.4v7.8c0 3-.4 5.4-1 7.3.8-2.2 1.2-5.1 1.2-8.6v-6.2c-.1-3-.4-5.6-1.1-7.7z"/></g><path d="m408.8 443c-2.6 2.6-5.6 3.9-8.9 3.7s-6.3-1.6-9-4.3l4.5-4.5c1.4 1.4 2.8 2.1 4.2 2.1s2.7-.7 4.1-2c1.3-1.3 1.9-2.6 1.8-4.1-.1-1.3-.8-2.7-2-4.1l4.5-4.5c1.2 1.1 2.5 1.6 3.7 1.7 1.4.1 2.6-.4 3.8-1.6 2.6-2.6 2.6-5 0-7.6l4.5-4.5c2.7 2.7 4.1 5.6 4.3 8.7.1 3.1-1.2 6-3.8 8.6-1.3 1.3-3 2.2-5.1 2.6-1.2.2-2.5.2-3.7 0 .4 1.4.5 2.7.3 4-.5 2.1-1.5 4-3.2 5.8z" fill="#141f33"/><path d="m400.6 447.7c-.2 0-.5 0-.7 0-3.6-.2-6.8-1.8-9.6-4.6l-.7-.7 5.9-5.9.7.7c1.2 1.2 2.4 1.8 3.5 1.8s2.1-.6 3.4-1.7c1.1-1.1 1.6-2.1 1.5-3.3-.1-1-.7-2.3-1.8-3.5l-.6-.7 5.8-5.8.7.6c.9.9 2 1.3 3.1 1.4s2-.3 3-1.3c2.2-2.2 2.2-4 0-6.2l-.7-.7 5.9-5.9.7.7c2.8 2.8 4.4 6 4.6 9.3.1 3.4-1.3 6.5-4.1 9.4-1.5 1.5-3.4 2.4-5.6 2.9-.9.1-1.7.2-2.6.2.2 1 .2 2 0 3-.6 2.4-1.7 4.5-3.5 6.3-2.7 2.7-5.7 4-8.9 4zm-8.3-5.3c2.3 2.1 4.8 3.2 7.6 3.3 2.9.2 5.7-1 8.1-3.4 1.5-1.6 2.5-3.3 2.9-5.3.2-1.1.1-2.2-.3-3.5l-.4-1.5 1.6.3c1.1.2 2.3.2 3.4 0 1.8-.3 3.4-1.1 4.6-2.3 2.4-2.4 3.6-5.1 3.5-7.9-.2-2.6-1.3-5-3.3-7.3l-3.1 3.1c2.3 2.8 2.1 5.5-.7 8.3-1.4 1.4-2.9 2-4.6 1.9-1.3-.1-2.5-.6-3.6-1.4l-3.2 3.2c1 1.3 1.6 2.7 1.7 4 .1 1.8-.6 3.4-2.1 4.9-1.7 1.6-3.2 2.3-4.8 2.3-1.4 0-2.8-.6-4.2-1.7z" fill="#141f33"/><path d="m445.2 444.7c.5-3.6-.8-7-3.9-10.1-3.2-3.2-6.6-4.5-10.3-3.8-3.5.6-7.3 3-11.4 7l-4.5 4.5c-3.8 3.9-6.1 7.7-6.6 11.2-.6 3.6.7 7.1 3.8 10.2 3.2 3.2 6.6 4.4 10.3 3.8 3.5-.6 7.4-3 11.5-7.1l4.4-4.4c3.9-4.1 6.1-7.8 6.7-11.3zm-17.2 11.5c-2.6 2.6-4.9 4.1-6.8 4.5-1.7.4-3.2-.1-4.5-1.5-1.4-1.4-1.9-2.9-1.4-4.7.5-2 2.1-4.3 4.8-7.1l5.4-5.4c2.6-2.5 4.8-4 6.7-4.5 1.7-.4 3.2.1 4.6 1.5s1.9 3 1.5 4.7c-.5 1.9-2 4.2-4.7 6.9z" fill="#141f33"/><path d="m420.8 468.6c-3.3 0-6.4-1.4-9.2-4.2-3.3-3.3-4.7-7.2-4.1-11.1.5-3.6 2.8-7.6 6.9-11.7l4.5-4.5c4.4-4.3 8.3-6.7 11.9-7.3 4-.8 7.7.6 11.2 4.1 3.3 3.3 4.7 7 4.2 10.9-.6 3.7-2.9 7.6-7 11.8l-4.4 4.4c-4.3 4.3-8.3 6.7-12 7.4-.7.2-1.3.2-2 .2zm12.1-37c-.6 0-1.1.1-1.7.2-3.2.6-6.9 2.8-10.9 6.7l-4.5 4.5c-3.7 3.8-5.9 7.4-6.3 10.6-.6 3.3.6 6.5 3.5 9.4s6 4.1 9.4 3.5c3.3-.6 7-2.9 11-6.8l4.4-4.4c3.7-3.9 5.8-7.5 6.4-10.7.5-3.3-.8-6.4-3.6-9.2-2.5-2.6-5-3.8-7.7-3.8zm-12.8 30.2c-1.5 0-2.9-.7-4.1-2-1.7-1.7-2.2-3.5-1.6-5.6.5-2.1 2.1-4.5 5-7.5l5.4-5.4c2.8-2.7 5.1-4.2 7.2-4.8 2.1-.5 3.9.1 5.6 1.8 1.6 1.6 2.2 3.6 1.8 5.6-.6 2.2-2.2 4.7-5 7.4l-5.6 5.6c-2.7 2.7-5.2 4.3-7.3 4.8-.5.1-1 .1-1.4.1zm13.2-23.4c-.3 0-.6 0-.9.1-1.7.4-3.7 1.8-6.2 4.2l-5.4 5.4c-2.6 2.7-4.1 4.9-4.5 6.6-.4 1.4 0 2.6 1.1 3.8s2.2 1.6 3.6 1.2c1.7-.4 3.9-1.8 6.3-4.2l5.6-5.6c2.5-2.5 4-4.6 4.4-6.4.3-1.4-.1-2.6-1.2-3.7-.9-1-1.8-1.4-2.8-1.4z" fill="#141f33"/><path d="m289 452c0-7.3-1.4-12.4-4.1-15.3-2.3-2.5-5-3.7-8.1-3.7-3 0-6 1.4-8.8 3.9-3 2.7-4.6 5.9-4.8 9.3s1 6.6 3.6 9.3l.8.9 5.3-4.9-.8-.9c-1.4-1.5-2.1-3.1-2.1-4.6 0-1.6.8-3 2.3-4.4 1.2-1.1 2.5-1.6 3.9-1.5s2.7.7 3.8 2c.9.9 1.5 2 1.8 3.4.4 1.4.6 3.5.7 6.3l.3 19.9 3.5 3.7 19.9-18.4-4.3-4.6-12.9 11.8z" fill="#141f33"/><path d="m286.3 476.8-4.4-4.7-.3-20.3c-.1-2.9-.3-4.8-.7-6-.3-1.2-.8-2.2-1.5-3-.9-1.1-1.9-1.6-3.2-1.7-1.1-.1-2.2.3-3.2 1.2-1.3 1.3-2 2.4-2 3.7s.6 2.6 1.8 3.9l1.5 1.7-6.8 6.3-1.5-1.7c-2.7-2.8-4.1-6.3-3.8-10 .2-3.7 2-7.2 5.1-10s6.3-4.2 9.5-4.2c3.4 0 6.4 1.4 8.8 4 2.9 3.1 4.4 8.5 4.4 16v9.9l12-10.9 5.7 6.1zm-2.5-5.5 2.6 2.7 18.4-17-2.9-3.1-13.9 12.6v-14.5c0-7-1.3-11.9-3.8-14.6-2.1-2.3-4.5-3.4-7.4-3.4-2.7 0-5.4 1.2-8.1 3.6-2.7 2.5-4.3 5.4-4.5 8.6-.2 3.1 1 6.1 3.3 8.5l.1.2 3.8-3.5-.1-.2c-1.5-1.6-2.4-3.5-2.4-5.3s.8-3.5 2.6-5.1c1.4-1.3 3-1.9 4.7-1.8 1.8.1 3.3.9 4.5 2.4 1 1 1.7 2.3 2 3.8.4 1.3.6 3.3.7 6.5z" fill="#141f33"/><path d="m306 446.4c-1 .9-1.5 1.9-1.4 3 0 1 .4 2 1.2 2.8.7.8 1.7 1.3 2.7 1.3 1.1.1 2.1-.3 3.1-1.2s1.5-1.9 1.5-3-.4-2-1.1-2.8c-.8-.8-1.7-1.3-2.8-1.4-1.2 0-2.2.4-3.2 1.3z" fill="#141f33"/><path d="m308.8 454.5c-.1 0-.3 0-.4 0-1.2 0-2.5-.6-3.4-1.6-.9-.9-1.4-2.2-1.4-3.5-.1-1.3.5-2.6 1.7-3.7 1.2-1.1 2.4-1.6 3.9-1.6 1.4.1 2.5.7 3.5 1.7 1 1.1 1.4 2.2 1.4 3.5 0 1.4-.6 2.7-1.8 3.7-1.1 1-2.3 1.5-3.5 1.5zm.3-8.4c-.9 0-1.6.3-2.4 1-.8.7-1.1 1.4-1.1 2.2 0 .9.3 1.6.9 2.2s1.3 1 2 1c.9.1 1.6-.2 2.4-.9s1.2-1.4 1.2-2.3c0-.8-.3-1.5-.9-2.1-.6-.7-1.3-1-2.1-1.1z" fill="#141f33"/><path d="m290.5 429.6c-1 .9-1.5 1.9-1.4 3 0 1 .4 2 1.2 2.8.7.8 1.6 1.3 2.7 1.3 1.1.1 2.1-.3 3.1-1.2s1.5-1.9 1.5-3-.4-2-1.1-2.8c-.8-.8-1.7-1.3-2.8-1.4-1.2 0-2.2.4-3.2 1.3z" fill="#141f33"/><path d="m293.3 437.7c-.1 0-.3 0-.4 0-1.2 0-2.4-.6-3.3-1.6-.9-.9-1.4-2.2-1.4-3.5-.1-1.3.5-2.6 1.7-3.7 1.2-1.1 2.4-1.6 3.9-1.6 1.4.1 2.5.7 3.5 1.7 1 1.1 1.4 2.2 1.4 3.5 0 1.4-.6 2.6-1.8 3.7-1.2 1-2.4 1.5-3.6 1.5zm-2.1-7.4c-.8.7-1.1 1.4-1.1 2.2 0 .9.3 1.6.9 2.2.6.7 1.2 1 2 1 .9.1 1.6-.2 2.4-.9s1.2-1.4 1.2-2.3c0-.8-.3-1.5-.9-2.1s-1.3-1-2.1-1.1c-.9 0-1.6.3-2.4 1z" fill="#141f33"/><path d="m299 408.3 4.3 4.6c-1.3 1.2-2 2.5-2 3.9-.1 1.4.4 2.6 1.5 3.8l.8.9-5.3 4.9-.8-.9c-2.3-2.4-3.2-5.3-3-8.6.3-3.3 1.8-6.2 4.5-8.6z" fill="#141f33"/><path d="m298.2 427.8-1.5-1.7c-2.4-2.5-3.5-5.6-3.3-9.3.3-3.6 2-6.7 4.8-9.3l.7-.6 5.7 6-.7.7c-1.1 1-1.7 2.1-1.7 3.2-.1 1.2.3 2.1 1.2 3.1l1.5 1.6zm.8-18.1c-2 2.1-3.2 4.5-3.5 7.3-.2 3.1.7 5.7 2.7 7.8l.1.2 3.8-3.5-.1-.2c-1.3-1.4-1.9-2.9-1.7-4.5 0-1.3.5-2.6 1.6-3.8z" fill="#141f33"/><path d="m310 421.2c.2-.2.3-.3.5-.5l4.3 4.7c-.2.1-.4.3-.5.4l-3.5 3.3-4.3-4.6z" fill="#141f33"/><path d="m310.8 430.5-5.7-6.1 5.4-5.2 5.9 6.5-1.2.6c-.1 0-.2.2-.2.2zm-2.9-6 2.9 3.1 2.5-2.4-2.9-3.2z" fill="#141f33"/><path d="m318.4 435.7c1.5 0 2.8-.6 4.2-1.9l4.3 4.6c-2.8 2.6-5.8 4-9 4.1-3.3.1-6.1-1.1-8.5-3.7l-.8-.9 5.3-4.9.8.9c1.1 1.2 2.3 1.8 3.7 1.8z" fill="#141f33"/><path d="m317.5 443.5c-3.5 0-6.4-1.3-8.8-4l-1.5-1.6 6.8-6.3 1.5 1.7c.9 1 1.9 1.5 3 1.5 1.2 0 2.3-.5 3.5-1.6l.7-.7 5.7 6.1-.7.7c-3 2.8-6.3 4.3-9.6 4.4-.3-.2-.4-.2-.6-.2zm-7.5-5.5.1.2c2.2 2.4 4.7 3.5 7.7 3.4 2.6-.1 5.2-1.1 7.6-3.2l-2.9-3.2c-1.3 1-2.7 1.5-4.1 1.5-1.7 0-3.1-.7-4.4-2.1l-.1-.1z" fill="#141f33"/></svg>