<svg enable-background="new 0 0 512 512" viewBox="0 0 512 512" xmlns="http://www.w3.org/2000/svg"><path d="m474.9 505.6h-437.8c-16.6 0-30.1-13.5-30.1-30.1v-438.3c0-16.6 13.5-30.1 30.1-30.1h437.8c16.6 0 30.1 13.5 30.1 30.1v438.3c0 16.6-13.5 30.1-30.1 30.1z" fill="none" stroke="#fff" stroke-miterlimit="10" stroke-width="5"/><g fill="#fff"><path d="m84.5 313.2c-3.4 0-6.7-.4-10-1.3-2.7-.7-4.2-3.5-3.5-6.1.7-2.7 3.5-4.2 6.1-3.5 2.4.6 4.9 1 7.4 1 15.4 0 28-12.6 28-28 0-3-.5-5.9-1.4-8.7-.9-2.6.6-5.4 3.2-6.3s5.4.6 6.3 3.2c1.2 3.8 1.9 7.8 1.9 11.8 0 20.9-17 37.9-38 37.9z"/><path d="m52.3 287.1c-2.3 0-4.4-1.6-4.9-4-.6-2.6-.8-5.3-.8-7.9 0-20.9 17-38 38-38 2 0 4.1.2 6.1.5 2.7.4 4.6 3 4.1 5.7-.4 2.7-3 4.6-5.7 4.1-1.5-.2-3-.4-4.5-.4-15.4 0-28 12.5-28 28 0 2 .2 3.9.6 5.9.6 2.7-1.1 5.4-3.8 5.9-.4.2-.8.2-1.1.2z"/><path d="m89 259.5c-2.4 0-4.6-1.8-4.9-4.3-.4-2.7 1.5-5.3 4.2-5.7l9.8-1.5-2.5-9.5c-.7-2.7.9-5.4 3.5-6.1 2.7-.7 5.4.9 6.1 3.5l4 14.9c.4 1.4.1 2.8-.7 4s-2 2-3.4 2.2l-15.3 2.3c-.3.2-.5.2-.8.2z"/><path d="m67 318.3c-2.2 0-4.2-1.5-4.8-3.7l-4-14.9c-.4-1.4-.1-2.8.7-4s2-2 3.4-2.2l15.3-2.3c2.7-.4 5.3 1.5 5.7 4.2s-1.5 5.3-4.2 5.7l-9.8 1.5 2.5 9.5c.7 2.7-.9 5.4-3.5 6.1-.5.1-.9.1-1.3.1z"/><path d="m78.2 287.7c-.5 0-1-.1-1.5-.4-.9-.5-1.5-1.5-1.5-2.6v-20.9c0-1.1.6-2.1 1.5-2.6s2.1-.5 3 0l18.1 10.5c.9.5 1.5 1.5 1.5 2.6s-.6 2.1-1.5 2.6l-18.1 10.5c-.4.2-.9.3-1.5.3zm3-18.7v10.5l9.1-5.3z"/><path d="m290.5 284.3h-140c-5.5 0-10-4.5-10-10s4.5-10 10-10h140c5.5 0 10 4.5 10 10s-4.5 10-10 10z"/><path d="m325.5 269.9h8.5v3.7h-8.5v9.7h-3.9v-9.7h-8.5v-3.7h8.5v-8.9h3.9z"/><path d="m327 284.7h-6.9v-9.7h-8.5v-6.7h8.5v-8.9h6.9v8.9h8.5v6.7h-8.5zm-3.9-3h.9v-9.7h8.5v-.7h-8.5v-8.9h-.9v8.9h-8.5v.7h8.5z"/><path d="m358.4 286.3h-20v-2.8l10.6-11.8c1.6-1.8 2.6-3.2 3.2-4.3s.9-2.3.9-3.5c0-1.6-.5-2.9-1.4-3.9-1-1-2.3-1.5-3.9-1.5-1.9 0-3.4.5-4.5 1.6s-1.6 2.6-1.6 4.6h-3.9c0-2.8.9-5.1 2.7-6.8s4.2-2.6 7.3-2.6c2.8 0 5.1.7 6.7 2.2 1.7 1.5 2.5 3.5 2.5 6 0 3-1.9 6.6-5.8 10.8l-8.2 8.9h15.3z"/><path d="m359.9 287.8h-23v-4.9l11-12.2c1.5-1.7 2.5-3 3-4 .5-.9.7-1.8.7-2.7 0-1.2-.3-2.2-1-2.9s-1.6-1.1-2.8-1.1c-1.5 0-2.6.4-3.4 1.2s-1.2 2-1.2 3.5v1.5h-6.9v-1.5c0-3.2 1.1-5.9 3.2-7.9s4.9-3 8.3-3c3.2 0 5.8.9 7.7 2.6 2 1.8 3 4.2 3 7.1 0 3.4-2 7.3-6.2 11.8l-5.9 6.4h13.4zm-20-3h17v-.2h-17zm0-.8v.3l10.3-11.1c3.6-3.9 5.4-7.1 5.4-9.7 0-2.1-.6-3.6-2-4.8s-3.3-1.8-5.7-1.8c-2.7 0-4.7.7-6.2 2.2-1.2 1.1-1.9 2.5-2.2 4.2h.9c.2-1.7.9-3.1 1.9-4.1 1.4-1.4 3.2-2.1 5.6-2.1 2 0 3.7.7 5 2 1.2 1.3 1.9 3 1.9 5 0 1.4-.4 2.8-1.1 4.2-.7 1.2-1.8 2.7-3.4 4.6z"/><path d="m381.7 273.2c0 4.5-.8 7.9-2.3 10.1-1.6 2.2-4 3.3-7.3 3.3s-5.7-1.1-7.2-3.2c-1.6-2.2-2.4-5.4-2.4-9.7v-5.2c0-4.5.8-7.8 2.3-10s4-3.3 7.3-3.3 5.7 1.1 7.3 3.2 2.4 5.4 2.4 9.8zm-3.9-5.3c0-3.3-.5-5.7-1.4-7.2s-2.4-2.3-4.4-2.3-3.4.7-4.3 2.2-1.4 3.8-1.4 6.9v6.2c0 3.3.5 5.7 1.4 7.3 1 1.6 2.4 2.4 4.4 2.4 1.9 0 3.3-.7 4.3-2.2.9-1.5 1.4-3.8 1.5-7v-6.3z"/><path d="m372.1 288.2c-3.8 0-6.6-1.3-8.5-3.9-1.8-2.4-2.7-5.9-2.7-10.6v-5.2c0-4.9.9-8.4 2.6-10.9 1.8-2.6 4.7-3.9 8.5-3.9s6.6 1.3 8.5 3.8c1.8 2.4 2.6 5.9 2.7 10.6v5.1c0 4.9-.9 8.5-2.6 11-1.8 2.7-4.7 4-8.5 4zm-.1-31.4c-2.8 0-4.8.9-6.1 2.6-1.4 1.9-2.1 5-2.1 9.1v5.2c.1 3.9.8 6.9 2.2 8.8 1.3 1.8 3.3 2.6 6 2.6 2.8 0 4.8-.9 6.1-2.7 1.4-1.9 2.1-5.1 2.1-9.3v-5c0-4-.7-7-2.1-8.9-1.3-1.6-3.2-2.4-6.1-2.4zm.1 28.2c-2.5 0-4.4-1.1-5.6-3.1-1.1-1.8-1.7-4.5-1.7-8.1v-6.2c0-3.4.6-5.9 1.6-7.7 1.2-1.9 3.1-3 5.6-3s4.5 1 5.7 3c1.1 1.8 1.6 4.4 1.6 8v6.4c0 3.5-.6 6.1-1.7 7.8-1.2 1.9-3.1 2.9-5.5 2.9zm-.1-25c-1.5 0-2.4.5-3.1 1.5-.8 1.3-1.2 3.3-1.2 6.1v6.2c0 3 .4 5.2 1.2 6.5.7 1.1 1.7 1.6 3.1 1.6s2.3-.5 3-1.5c.8-1.2 1.2-3.3 1.2-6.2v-6.3c0-3.7-.6-5.5-1.2-6.4-.5-1-1.5-1.5-3-1.5z"/><path d="m387 284.2c0-.7.2-1.2.6-1.7.4-.4 1-.7 1.8-.7s1.4.2 1.8.7c.4.4.6 1 .6 1.7 0 .6-.2 1.2-.6 1.6s-1 .7-1.8.7-1.4-.2-1.8-.7c-.4-.4-.6-.9-.6-1.6zm0-18.5c0-.7.2-1.2.6-1.7.4-.4 1-.7 1.8-.7s1.4.2 1.8.7.6 1 .6 1.7c0 .6-.2 1.2-.6 1.6s-1 .7-1.8.7-1.4-.2-1.8-.7c-.4-.4-.6-1-.6-1.6z"/><path d="m389.3 288c-1.2 0-2.2-.4-2.9-1.1s-1-1.6-1-2.6.3-1.9 1-2.7c.5-.5 1.4-1.2 2.9-1.2s2.4.6 2.9 1.2c.7.7 1 1.7 1 2.7s-.4 1.9-1 2.7c-.7.6-1.6 1-2.9 1zm0-4.6c-.2 0-.5 0-.7.2-.1.1-.2.3-.2.7 0 .3.1.5.2.6s.3.2.7.2c.2 0 .6 0 .7-.2.1-.1.2-.3.2-.6 0-.4-.1-.5-.2-.7s-.4-.2-.7-.2zm.1-13.9c-1.2 0-2.2-.4-2.9-1.1s-1-1.6-1-2.6.3-2 1-2.7c.5-.5 1.4-1.2 2.9-1.2s2.4.6 2.9 1.2c.7.7 1 1.7 1 2.7s-.4 1.9-1 2.7c-.7.6-1.7 1-2.9 1zm0-4.7c-.2 0-.5 0-.7.2-.1.1-.2.3-.2.7 0 .3.1.5.2.6s.3.2.7.2c.2 0 .6 0 .7-.2.1-.1.2-.3.2-.6 0-.4-.1-.5-.2-.7-.2-.1-.5-.2-.7-.2z"/><path d="m416.3 273.2c0 4.5-.8 7.9-2.3 10.1-1.6 2.2-4 3.3-7.3 3.3s-5.7-1.1-7.2-3.2c-1.6-2.2-2.4-5.4-2.4-9.7v-5.2c0-4.5.8-7.8 2.3-10s4-3.3 7.3-3.3 5.7 1.1 7.3 3.2 2.4 5.4 2.4 9.8zm-3.9-5.3c0-3.3-.5-5.7-1.4-7.2s-2.4-2.3-4.4-2.3-3.4.7-4.3 2.2-1.4 3.8-1.4 6.9v6.2c0 3.3.5 5.7 1.4 7.3 1 1.6 2.4 2.4 4.4 2.4 1.9 0 3.3-.7 4.3-2.2.9-1.5 1.4-3.8 1.5-7v-6.3z"/><path d="m406.6 288.2c-3.8 0-6.6-1.3-8.5-3.9-1.8-2.4-2.7-5.9-2.7-10.6v-5.2c0-4.9.9-8.4 2.6-10.9 1.8-2.6 4.7-3.9 8.5-3.9s6.6 1.3 8.5 3.8c1.8 2.4 2.6 5.9 2.7 10.6v5.1c0 4.9-.9 8.5-2.6 11-1.8 2.7-4.6 4-8.5 4zm0-31.4c-2.8 0-4.8.9-6.1 2.6-1.4 1.9-2.1 5-2.1 9.1v5.2c.1 3.9.8 6.9 2.2 8.8 1.3 1.8 3.3 2.6 6 2.6 2.8 0 4.8-.9 6.1-2.7 1.4-1.9 2.1-5.1 2.1-9.3v-5c0-4-.7-7-2.1-8.9-1.3-1.6-3.3-2.4-6.1-2.4zm0 28.2c-2.5 0-4.4-1.1-5.6-3.1-1.1-1.8-1.7-4.5-1.7-8.1v-6.2c0-3.4.6-5.9 1.6-7.7 1.2-1.9 3.1-3 5.6-3s4.5 1 5.7 3c1.1 1.8 1.6 4.4 1.6 8v6.4c0 3.5-.6 6.1-1.7 7.8-1.1 1.9-3 2.9-5.5 2.9zm0-25c-1.5 0-2.4.5-3.1 1.5-.8 1.3-1.2 3.3-1.2 6.1v6.2c0 3 .4 5.2 1.2 6.5.7 1.1 1.7 1.6 3.1 1.6s2.3-.5 3-1.5c.8-1.2 1.2-3.3 1.2-6.2v-6.3c0-3.7-.6-5.5-1.2-6.4-.5-1-1.5-1.5-3-1.5z"/><path d="m440.4 273.2c0 4.5-.8 7.9-2.3 10.1-1.6 2.2-4 3.3-7.3 3.3s-5.7-1.1-7.2-3.2c-1.6-2.2-2.4-5.4-2.4-9.7v-5.2c0-4.5.8-7.8 2.3-10s4-3.3 7.3-3.3 5.7 1.1 7.3 3.2 2.4 5.4 2.4 9.8zm-3.9-5.3c0-3.3-.5-5.7-1.4-7.2s-2.4-2.3-4.4-2.3-3.4.7-4.3 2.2-1.4 3.8-1.4 6.9v6.2c0 3.3.5 5.7 1.4 7.3 1 1.6 2.4 2.4 4.4 2.4 1.9 0 3.3-.7 4.3-2.2.9-1.5 1.4-3.8 1.5-7v-6.3z"/><path d="m430.8 288.2c-3.8 0-6.6-1.3-8.5-3.9-1.8-2.4-2.7-5.9-2.7-10.6v-5.2c0-4.9.9-8.4 2.6-10.9 1.8-2.6 4.7-3.9 8.5-3.9s6.6 1.3 8.5 3.8c1.8 2.4 2.6 5.9 2.7 10.6v5.1c0 4.9-.9 8.5-2.6 11-1.8 2.7-4.7 4-8.5 4zm-.1-31.4c-2.8 0-4.8.9-6.1 2.6-1.4 1.9-2.1 5-2.1 9.1v5.2c.1 3.9.8 6.9 2.2 8.8 1.3 1.8 3.3 2.6 6 2.6 2.8 0 4.8-.9 6.1-2.7 1.4-1.9 2.1-5.1 2.1-9.3v-5c0-4-.7-7-2.1-8.9-1.3-1.6-3.2-2.4-6.1-2.4zm.1 28.2c-2.5 0-4.4-1.1-5.6-3.1-1.1-1.8-1.7-4.5-1.7-8.1v-6.2c0-3.4.6-5.9 1.6-7.7 1.2-1.9 3.1-3 5.6-3s4.5 1 5.7 3c1.1 1.8 1.6 4.4 1.6 8v6.4c0 3.5-.6 6.1-1.7 7.8-1.2 1.9-3.1 2.9-5.5 2.9zm-.1-25c-1.5 0-2.4.5-3.1 1.5-.8 1.3-1.2 3.3-1.2 6.1v6.2c0 3 .4 5.2 1.2 6.5.7 1.1 1.7 1.6 3.1 1.6s2.3-.5 3-1.5c.8-1.2 1.2-3.3 1.2-6.2v-6.3c0-3.7-.6-5.5-1.2-6.4-.5-1-1.5-1.5-3-1.5z"/><path d="m446.6 288.9h-3.3l12.8-33.2h3.3z"/><path d="m447.6 290.4h-6.6l13.9-36.2h6.5zm-2.2-3h.1l11.6-30.2h-.1z"/><path d="m462.6 274.7c0-3.5.8-6.3 2.5-8.4s3.8-3.2 6.5-3.2 4.8.9 6.3 2.7v-11.8h3.9v32.3h-3.6l-.2-2.4c-1.6 1.9-3.7 2.9-6.5 2.9-2.6 0-4.8-1.1-6.4-3.2-1.7-2.2-2.5-5-2.5-8.4zm3.8.5c0 2.6.5 4.6 1.6 6 1.1 1.5 2.5 2.2 4.4 2.2 2.5 0 4.3-1.1 5.4-3.3v-10.4c-1.2-2.1-2.9-3.2-5.4-3.2-1.9 0-3.4.7-4.5 2.2s-1.5 3.6-1.5 6.5z"/><path d="m471.5 288.2c-3.1 0-5.7-1.3-7.6-3.8-1.9-2.4-2.8-5.6-2.8-9.4v-.3c0-3.8.9-7 2.8-9.3 1.9-2.5 4.5-3.8 7.7-3.8 1.8 0 3.4.4 4.8 1.1v-10.2h6.9v35.3h-6.5l-.1-.9c-1.5.8-3.2 1.3-5.2 1.3zm0-23.6c-2.2 0-3.9.9-5.3 2.6-1.4 1.8-2.2 4.4-2.2 7.5v.3c0 3.1.7 5.6 2.2 7.5 1.4 1.8 3.1 2.6 5.2 2.6 1.1 0 2.1-.2 2.9-.5-.6.2-1.3.2-2 .2-2.3 0-4.3-1-5.6-2.8-1.3-1.7-1.9-4-1.9-6.9 0-3.2.6-5.7 1.9-7.4 1.3-1.8 3.3-2.8 5.7-2.8.7 0 1.3.1 1.9.2-.8-.3-1.7-.5-2.8-.5zm8 20.2h.7v-29.3h-.9v24.9l-.1.2zm-7-16.9c-1.4 0-2.5.5-3.2 1.6-.9 1.2-1.3 3.1-1.3 5.7 0 2.2.4 4 1.3 5.2.8 1.1 1.8 1.6 3.2 1.6 1.8 0 3-.7 3.9-2.2v-9.8c-.9-1.4-2.2-2.1-3.9-2.1z"/><path d="m84.5 423.2c-3.4 0-6.7-.4-10-1.3-2.7-.7-4.2-3.5-3.5-6.1.7-2.7 3.5-4.2 6.1-3.5 2.4.6 4.9 1 7.4 1 15.4 0 28-12.6 28-28 0-3-.5-5.9-1.4-8.7-.9-2.6.6-5.4 3.2-6.3s5.4.6 6.3 3.2c1.2 3.8 1.9 7.8 1.9 11.8 0 20.9-17 37.9-38 37.9z"/><path d="m52.3 397.1c-2.3 0-4.4-1.6-4.9-4-.6-2.6-.8-5.3-.8-7.9 0-20.9 17-38 38-38 2 0 4.1.2 6.1.5 2.7.4 4.6 3 4.1 5.7-.4 2.7-3 4.6-5.7 4.1-1.5-.2-3-.4-4.5-.4-15.4 0-28 12.5-28 28 0 2 .2 3.9.6 5.9.6 2.7-1.1 5.4-3.8 5.9-.4.2-.8.2-1.1.2z"/><path d="m89 369.5c-2.4 0-4.6-1.8-4.9-4.3-.4-2.7 1.5-5.3 4.2-5.7l9.8-1.5-2.5-9.5c-.7-2.7.9-5.4 3.5-6.1 2.7-.7 5.4.9 6.1 3.5l4 14.9c.4 1.4.1 2.8-.7 4s-2 2-3.4 2.2l-15.3 2.3c-.3.2-.5.2-.8.2z"/><path d="m67 428.3c-2.2 0-4.2-1.5-4.8-3.7l-4-14.9c-.4-1.4-.1-2.8.7-4s2-2 3.4-2.2l15.3-2.3c2.7-.4 5.3 1.5 5.7 4.2s-1.5 5.3-4.2 5.7l-9.8 1.5 2.5 9.5c.7 2.7-.9 5.4-3.5 6.1-.5.1-.9.1-1.3.1z"/><path d="m78.2 397.7c-.5 0-1-.1-1.5-.4-.9-.5-1.5-1.5-1.5-2.6v-20.9c0-1.1.6-2.1 1.5-2.6s2.1-.5 3 0l18.1 10.5c.9.5 1.5 1.5 1.5 2.6s-.6 2.1-1.5 2.6l-18.1 10.5c-.4.2-.9.3-1.5.3zm3-18.7v10.5l9.1-5.3z"/><path d="m290.5 394.3h-140c-5.5 0-10-4.5-10-10s4.5-10 10-10h140c5.5 0 10 4.5 10 10s-4.5 10-10 10z"/><path d="m325.5 379.9h8.5v3.7h-8.5v9.7h-3.9v-9.7h-8.5v-3.7h8.5v-8.9h3.9z"/><path d="m327 394.7h-6.9v-9.7h-8.5v-6.7h8.5v-8.9h6.9v8.9h8.5v6.7h-8.5zm-3.9-3h.9v-9.7h8.5v-.7h-8.5v-8.9h-.9v8.9h-8.5v.7h8.5z"/><path d="m354.8 386h4.2v3.2h-4.2v7.1h-3.9v-7.1h-13.9v-2.3l13.7-21.2h4.1zm-13.4 0h9.5v-15l-.5.8z"/><path d="m356.3 397.8h-6.9v-7.1h-13.9v-4.2l14.4-22.2h6.5v20.3h4.2v6.2h-4.2v7zm-3.9-3h.9v-7.1h4.2v-.2h-4.2v-20.3h-.9v20.3h-13.8l10.5-16.5 1-1.8-11.7 18v.3h13.9v7.3zm-8.3-10.3h5.3v-8.2z"/><path d="m364.3 380.9 1.6-15.2h15.7v3.6h-12.4l-.9 8.3c1.5-.9 3.2-1.3 5.1-1.3 2.8 0 5 .9 6.6 2.8s2.5 4.3 2.5 7.5c0 3.1-.9 5.6-2.6 7.4s-4.1 2.7-7.1 2.7c-2.7 0-4.9-.7-6.6-2.2s-2.7-3.6-2.9-6.2h3.7c.2 1.7.9 3.1 1.9 4s2.3 1.3 4 1.3c1.8 0 3.2-.6 4.3-1.8 1-1.2 1.5-2.9 1.5-5.1 0-2-.6-3.7-1.7-4.9s-2.6-1.9-4.4-1.9c-1.7 0-3 .4-4 1.1l-1 .8z"/><path d="m372.8 398.2c-3.1 0-5.6-.9-7.6-2.6-2-1.8-3.2-4.2-3.4-7.2l-.1-1.6h6.6l.2 1.3c.2 1.4.6 2.4 1.4 3 .7.6 1.7 1 3 1 1.4 0 2.4-.4 3.1-1.3.8-.9 1.2-2.3 1.2-4.1 0-1.7-.4-3-1.3-3.9-.8-.9-1.9-1.4-3.3-1.4-1.3 0-2.4.3-3.1.8l-1.6 1.3-5.1-1.3 1.8-17.9h18.4v6.6h-12.5l-.5 4.5c1-.3 2.2-.4 3.3-.4 3.2 0 5.8 1.1 7.8 3.3 1.9 2.1 2.8 5 2.8 8.5s-1 6.4-3 8.5c-1.9 1.8-4.7 2.9-8.1 2.9zm-7.8-8.5c.4 1.5 1.1 2.7 2.1 3.6 1.4 1.3 3.3 1.9 5.6 1.9 2.6 0 4.6-.7 6-2.2s2.1-3.6 2.1-6.4-.7-4.9-2.1-6.5c-1.4-1.5-3.2-2.3-5.5-2.3-1.6 0-2.9.3-4.2 1 .9-.4 2-.5 3.3-.5 2.3 0 4.2.8 5.6 2.4 1.4 1.5 2.1 3.5 2.1 5.9 0 2.5-.6 4.6-1.9 6.1-1.3 1.6-3.1 2.4-5.4 2.4-2 0-3.7-.6-5-1.7-1-.9-1.7-2.1-2.1-3.6zm2-9.6.2-.1zm-1.1-.3.5.1 1.3-12.2h12.3v-.6h-12.8z"/><path d="m387 394.2c0-.7.2-1.2.6-1.7.4-.4 1-.7 1.8-.7s1.4.2 1.8.7c.4.4.6 1 .6 1.7 0 .6-.2 1.2-.6 1.6s-1 .7-1.8.7-1.4-.2-1.8-.7c-.4-.4-.6-.9-.6-1.6zm0-18.5c0-.7.2-1.2.6-1.7.4-.4 1-.7 1.8-.7s1.4.2 1.8.7.6 1 .6 1.7c0 .6-.2 1.2-.6 1.6s-1 .7-1.8.7-1.4-.2-1.8-.7c-.4-.4-.6-1-.6-1.6z"/><path d="m389.3 398c-1.2 0-2.2-.4-2.9-1.1s-1-1.6-1-2.6.3-1.9 1-2.7c.5-.5 1.4-1.2 2.9-1.2s2.4.6 2.9 1.2c.7.7 1 1.7 1 2.7s-.4 1.9-1 2.7c-.7.6-1.6 1-2.9 1zm0-4.6c-.2 0-.5 0-.7.2-.1.1-.2.3-.2.7 0 .3.1.5.2.6s.3.2.7.2c.2 0 .6 0 .7-.2.1-.1.2-.3.2-.6 0-.4-.1-.5-.2-.7s-.4-.2-.7-.2zm.1-13.9c-1.2 0-2.2-.4-2.9-1.1s-1-1.6-1-2.6.3-2 1-2.7c.5-.5 1.4-1.2 2.9-1.2s2.4.6 2.9 1.2c.7.7 1 1.7 1 2.7s-.4 1.9-1 2.7c-.7.6-1.7 1-2.9 1zm0-4.7c-.2 0-.5 0-.7.2-.1.1-.2.3-.2.7 0 .3.1.5.2.6s.3.2.7.2c.2 0 .6 0 .7-.2.1-.1.2-.3.2-.6 0-.4-.1-.5-.2-.7-.2-.1-.5-.2-.7-.2z"/><path d="m416.3 383.2c0 4.5-.8 7.9-2.3 10.1-1.6 2.2-4 3.3-7.3 3.3s-5.7-1.1-7.2-3.2c-1.6-2.2-2.4-5.4-2.4-9.7v-5.2c0-4.5.8-7.8 2.3-10s4-3.3 7.3-3.3 5.7 1.1 7.3 3.2 2.4 5.4 2.4 9.8zm-3.9-5.3c0-3.3-.5-5.7-1.4-7.2s-2.4-2.3-4.4-2.3-3.4.7-4.3 2.2-1.4 3.8-1.4 6.9v6.2c0 3.3.5 5.7 1.4 7.3 1 1.6 2.4 2.4 4.4 2.4 1.9 0 3.3-.7 4.3-2.2.9-1.5 1.4-3.8 1.5-7v-6.3z"/><path d="m406.6 398.2c-3.8 0-6.6-1.3-8.5-3.9-1.8-2.4-2.7-5.9-2.7-10.6v-5.2c0-4.9.9-8.4 2.6-10.9 1.8-2.6 4.7-3.9 8.5-3.9s6.6 1.3 8.5 3.8c1.8 2.4 2.6 5.9 2.7 10.6v5.1c0 4.9-.9 8.5-2.6 11-1.8 2.7-4.6 4-8.5 4zm0-31.4c-2.8 0-4.8.9-6.1 2.6-1.4 1.9-2.1 5-2.1 9.1v5.2c.1 3.9.8 6.9 2.2 8.8 1.3 1.8 3.3 2.6 6 2.6 2.8 0 4.8-.9 6.1-2.7 1.4-1.9 2.1-5.1 2.1-9.3v-5c0-4-.7-7-2.1-8.9-1.3-1.6-3.3-2.4-6.1-2.4zm0 28.2c-2.5 0-4.4-1.1-5.6-3.1-1.1-1.8-1.7-4.5-1.7-8.1v-6.2c0-3.4.6-5.9 1.6-7.7 1.2-1.9 3.1-3 5.6-3s4.5 1 5.7 3c1.1 1.8 1.6 4.4 1.6 8v6.4c0 3.5-.6 6.1-1.7 7.8-1.1 1.9-3 2.9-5.5 2.9zm0-25c-1.5 0-2.4.5-3.1 1.5-.8 1.3-1.2 3.3-1.2 6.1v6.2c0 3 .4 5.2 1.2 6.5.7 1.1 1.7 1.6 3.1 1.6s2.3-.5 3-1.5c.8-1.2 1.2-3.3 1.2-6.2v-6.3c0-3.7-.6-5.5-1.2-6.4-.5-1-1.5-1.5-3-1.5z"/><path d="m440.4 383.2c0 4.5-.8 7.9-2.3 10.1-1.6 2.2-4 3.3-7.3 3.3s-5.7-1.1-7.2-3.2c-1.6-2.2-2.4-5.4-2.4-9.7v-5.2c0-4.5.8-7.8 2.3-10s4-3.3 7.3-3.3 5.7 1.1 7.3 3.2 2.4 5.4 2.4 9.8zm-3.9-5.3c0-3.3-.5-5.7-1.4-7.2s-2.4-2.3-4.4-2.3-3.4.7-4.3 2.2-1.4 3.8-1.4 6.9v6.2c0 3.3.5 5.7 1.4 7.3 1 1.6 2.4 2.4 4.4 2.4 1.9 0 3.3-.7 4.3-2.2.9-1.5 1.4-3.8 1.5-7v-6.3z"/><path d="m430.8 398.2c-3.8 0-6.6-1.3-8.5-3.9-1.8-2.4-2.7-5.9-2.7-10.6v-5.2c0-4.9.9-8.4 2.6-10.9 1.8-2.6 4.7-3.9 8.5-3.9s6.6 1.3 8.5 3.8c1.8 2.4 2.6 5.9 2.7 10.6v5.1c0 4.9-.9 8.5-2.6 11-1.8 2.7-4.7 4-8.5 4zm-.1-31.4c-2.8 0-4.8.9-6.1 2.6-1.4 1.9-2.1 5-2.1 9.1v5.2c.1 3.9.8 6.9 2.2 8.8 1.3 1.8 3.3 2.6 6 2.6 2.8 0 4.8-.9 6.1-2.7 1.4-1.9 2.1-5.1 2.1-9.3v-5c0-4-.7-7-2.1-8.9-1.3-1.6-3.2-2.4-6.1-2.4zm.1 28.2c-2.5 0-4.4-1.1-5.6-3.1-1.1-1.8-1.7-4.5-1.7-8.1v-6.2c0-3.4.6-5.9 1.6-7.7 1.2-1.9 3.1-3 5.6-3s4.5 1 5.7 3c1.1 1.8 1.6 4.4 1.6 8v6.4c0 3.5-.6 6.1-1.7 7.8-1.2 1.9-3.1 2.9-5.5 2.9zm-.1-25c-1.5 0-2.4.5-3.1 1.5-.8 1.3-1.2 3.3-1.2 6.1v6.2c0 3 .4 5.2 1.2 6.5.7 1.1 1.7 1.6 3.1 1.6s2.3-.5 3-1.5c.8-1.2 1.2-3.3 1.2-6.2v-6.3c0-3.7-.6-5.5-1.2-6.4-.5-1-1.5-1.5-3-1.5z"/><path d="m446.6 398.9h-3.3l12.8-33.2h3.3z"/><path d="m447.6 400.4h-6.6l13.9-36.2h6.5zm-2.2-3h.1l11.6-30.2h-.1z"/><path d="m462.6 384.7c0-3.5.8-6.3 2.5-8.4s3.8-3.2 6.5-3.2 4.8.9 6.3 2.7v-11.8h3.9v32.3h-3.6l-.2-2.4c-1.6 1.9-3.7 2.9-6.5 2.9-2.6 0-4.8-1.1-6.4-3.2-1.7-2.2-2.5-5-2.5-8.4zm3.8.5c0 2.6.5 4.6 1.6 6 1.1 1.5 2.5 2.2 4.4 2.2 2.5 0 4.3-1.1 5.4-3.3v-10.4c-1.2-2.1-2.9-3.2-5.4-3.2-1.9 0-3.4.7-4.5 2.2s-1.5 3.6-1.5 6.5z"/><path d="m471.5 398.2c-3.1 0-5.7-1.3-7.6-3.8-1.9-2.4-2.8-5.6-2.8-9.4v-.3c0-3.8.9-7 2.8-9.3 1.9-2.5 4.5-3.8 7.7-3.8 1.8 0 3.4.4 4.8 1.1v-10.2h6.9v35.3h-6.5l-.1-.9c-1.5.8-3.2 1.3-5.2 1.3zm0-23.6c-2.2 0-3.9.9-5.3 2.6-1.4 1.8-2.2 4.4-2.2 7.5v.3c0 3.1.7 5.6 2.2 7.5 1.4 1.8 3.1 2.6 5.2 2.6 1.1 0 2.1-.2 2.9-.5-.6.2-1.3.2-2 .2-2.3 0-4.3-1-5.6-2.8-1.3-1.7-1.9-4-1.9-6.9 0-3.2.6-5.7 1.9-7.4 1.3-1.8 3.3-2.8 5.7-2.8.7 0 1.3.1 1.9.2-.8-.3-1.7-.5-2.8-.5zm8 20.2h.7v-29.3h-.9v24.9l-.1.2zm-7-16.9c-1.4 0-2.5.5-3.2 1.6-.9 1.2-1.3 3.1-1.3 5.7 0 2.2.4 4 1.3 5.2.8 1.1 1.8 1.6 3.2 1.6 1.8 0 3-.7 3.9-2.2v-9.8c-.9-1.4-2.2-2.1-3.9-2.1z"/><path d="m65.3 186.9c-3.7 0-7.4-.5-10.9-1.5-2.7-.7-4.2-3.5-3.5-6.1.7-2.7 3.5-4.2 6.1-3.5 2.7.7 5.5 1.1 8.3 1.1 17.5 0 31.7-14.2 31.7-31.7 0-3.4-.5-6.7-1.6-9.8-.9-2.6.6-5.4 3.2-6.3s5.4.6 6.3 3.2c1.4 4.2 2.1 8.5 2.1 12.9 0 23-18.7 41.7-41.7 41.7z"/><path d="m29.5 157.9c-2.3 0-4.4-1.6-4.9-4-.6-2.9-.9-5.8-.9-8.7 0-23 18.7-41.7 41.7-41.7 2.2 0 4.5.2 6.7.5 2.7.4 4.6 3 4.1 5.7-.4 2.7-3 4.6-5.7 4.1-1.7-.3-3.4-.4-5.1-.4-17.5 0-31.7 14.2-31.7 31.7 0 2.2.2 4.5.7 6.6.6 2.7-1.1 5.4-3.8 5.9-.4.3-.8.3-1.1.3z"/><path d="m70.3 127.2c-2.4 0-4.6-1.8-4.9-4.3-.4-2.7 1.5-5.3 4.2-5.7l11.5-1.7-3-11.2c-.7-2.7.9-5.4 3.5-6.1 2.7-.7 5.4.9 6.1 3.5l4.4 16.6c.4 1.4.1 2.8-.7 4s-2 2-3.4 2.2l-17 2.6c-.2.1-.4.1-.7.1z"/><path d="m45.8 192.6c-2.2 0-4.2-1.5-4.8-3.7l-4.4-16.6c-.4-1.4-.1-2.8.7-4s2-2 3.4-2.2l17-2.6c2.7-.4 5.3 1.5 5.7 4.2s-1.5 5.3-4.2 5.7l-11.5 1.7 3 11.2c.7 2.7-.9 5.4-3.5 6.1-.5.1-.9.2-1.4.2z"/><path d="m58.4 158.8c-.5 0-1-.1-1.5-.4-.9-.5-1.5-1.5-1.5-2.6v-23.2c0-1.1.6-2.1 1.5-2.6s2.1-.5 3 0l20.1 11.5c.9.5 1.5 1.5 1.5 2.6s-.6 2.1-1.5 2.6l-20.1 11.6c-.5.3-1 .5-1.5.5zm3-21.1v12.8l11.1-6.4z"/><path d="m294.3 154.1h-155.6c-5.5 0-10-4.5-10-10s4.5-10 10-10h155.7c5.5 0 10 4.5 10 10s-4.6 10-10.1 10z"/><path d="m330.8 140.3h8.9v3.8h-8.9v10.1h-4.1v-10.1h-8.9v-3.8h8.9v-9.3h4.1z"/><path d="m332.3 155.8h-7.1v-10.1h-8.9v-6.8h8.9v-9.3h7.1v9.3h8.9v6.8h-8.9zm-4.1-3h1.1v-10.1h8.9v-.8h-8.9v-9.3h-1.1v9.3h-8.9v.8h8.9z"/><path d="m350.2 139.5h3.1c1.9 0 3.4-.5 4.5-1.5s1.6-2.3 1.6-4c0-3.8-1.9-5.6-5.6-5.6-1.8 0-3.2.5-4.2 1.5s-1.6 2.3-1.6 4h-4c0-2.5.9-4.6 2.8-6.3s4.2-2.5 7.1-2.5c3 0 5.4.8 7.1 2.4s2.6 3.8 2.6 6.7c0 1.4-.5 2.7-1.4 4s-2.1 2.3-3.7 2.9c1.8.6 3.1 1.5 4.1 2.8s1.4 2.9 1.4 4.7c0 2.9-.9 5.1-2.8 6.8s-4.3 2.5-7.3 2.5-5.4-.8-7.3-2.4-2.8-3.8-2.8-6.4h4.1c0 1.7.5 3 1.6 4s2.6 1.5 4.4 1.5c2 0 3.5-.5 4.5-1.5s1.6-2.5 1.6-4.4-.6-3.3-1.7-4.3-2.8-1.5-4.9-1.5h-3.1v-3.4z"/><path d="m353.8 159.4c-3.4 0-6.2-.9-8.3-2.8-2.2-1.9-3.3-4.5-3.3-7.6v-1.5h7.1v1.5c0 1.3.4 2.2 1.2 2.9.8.8 1.9 1.1 3.4 1.1 1.6 0 2.7-.4 3.5-1.1.7-.7 1.1-1.8 1.1-3.3 0-1.4-.4-2.5-1.2-3.2-.9-.8-2.2-1.1-4-1.2h-4.5v-6.2h4.6c1.5 0 2.7-.4 3.5-1.1s1.1-1.6 1.1-2.9c0-2.9-1.2-4.1-4.1-4.1-1.4 0-2.4.4-3.2 1.1-.7.7-1.1 1.7-1.1 2.9v1.5h-7.1v-1.5c0-3 1.1-5.5 3.3-7.4 2.1-1.9 4.8-2.9 8.1-2.9 3.4 0 6.1.9 8.1 2.8s3 4.5 3 7.8c0 1.7-.5 3.3-1.6 4.9-.5.7-1.1 1.4-1.8 1.9.8.6 1.5 1.2 2.1 2 1.2 1.5 1.7 3.4 1.7 5.6 0 3.3-1.1 6-3.3 7.9-2.1 2-4.9 2.9-8.3 2.9zm-8.5-8.8c.3 1.5 1 2.8 2.2 3.8 1.6 1.4 3.7 2.1 6.3 2.1s4.7-.7 6.3-2.1 2.3-3.3 2.3-5.7c0-1.5-.4-2.8-1.1-3.8s-1.7-1.7-3-2.1c.3.2.6.4.8.6 1.5 1.3 2.2 3.1 2.2 5.4s-.7 4.2-2 5.5-3.2 2-5.6 2c-2.2 0-4.1-.6-5.4-1.9-1.1-1-1.7-2.2-2-3.6h-1zm6.4-9.3h1.6c.4 0 .9 0 1.3.1l-.5-.1 1-.4c-.6.1-1.2.2-1.8.2h-1.6zm2.1-14.4c4.6 0 7.1 2.5 7.1 7.1 0 2.1-.7 3.8-2.1 5.1-.2.1-.3.3-.5.4 1.1-.5 1.9-1.2 2.6-2.2.7-1.1 1.1-2.1 1.1-3.2 0-2.4-.7-4.2-2.1-5.6-1.4-1.3-3.4-2-6.1-2-2.5 0-4.5.7-6.1 2.1-1.2 1-1.9 2.3-2.1 3.7h1.1c.3-1.4.9-2.6 1.9-3.6 1.3-1.2 3.1-1.8 5.2-1.8z"/><path d="m389.6 143.8c0 4.8-.8 8.3-2.4 10.6s-4.2 3.5-7.6 3.5-5.9-1.1-7.6-3.4c-1.6-2.3-2.5-5.6-2.5-10.1v-5.4c0-4.7.8-8.2 2.4-10.5s4.2-3.4 7.6-3.4 6 1.1 7.6 3.3 2.5 5.6 2.5 10.2zm-4.1-5.5c0-3.4-.5-6-1.4-7.5s-2.5-2.4-4.6-2.4-3.6.8-4.5 2.4c-1 1.6-1.4 4-1.5 7.2v6.5c0 3.5.5 6 1.5 7.7 1 1.6 2.5 2.5 4.6 2.5 2 0 3.5-.8 4.5-2.3 1-1.6 1.5-4 1.5-7.3v-6.8z"/><path d="m379.5 159.4c-3.9 0-6.9-1.4-8.8-4-1.8-2.5-2.8-6.1-2.8-11v-5.4c0-5.1.9-8.8 2.7-11.4 1.9-2.7 4.9-4.1 8.9-4.1 3.9 0 6.9 1.3 8.8 3.9 1.8 2.5 2.8 6.1 2.8 11.1v5.3c0 5.1-.9 8.9-2.7 11.5-1.9 2.7-4.9 4.1-8.9 4.1zm0-32.8c-3 0-5.1.9-6.4 2.8-1.4 2-2.2 5.2-2.2 9.6v5.4c.1 4.1.8 7.3 2.3 9.3 1.4 1.9 3.4 2.8 6.4 2.8s5.1-.9 6.4-2.8c1.4-2 2.2-5.3 2.2-9.8v-5.3c0-4.2-.8-7.4-2.2-9.3s-3.5-2.7-6.5-2.7zm0 29.5c-2.5 0-4.6-1.1-5.8-3.2-1.2-1.9-1.7-4.7-1.7-8.4v-6.5c0-3.6.6-6.2 1.7-8 1.2-2 3.2-3.1 5.8-3.1s4.6 1.1 5.9 3.1c1.1 1.8 1.7 4.5 1.7 8.3v6.7c0 3.7-.6 6.3-1.8 8.1-1.3 2-3.2 3-5.8 3zm0-26.2c-1.6 0-2.6.5-3.3 1.6-.8 1.3-1.2 3.5-1.3 6.5v6.5c0 3.2.4 5.5 1.3 6.9.7 1.2 1.8 1.8 3.3 1.8s2.5-.5 3.2-1.6c.8-1.3 1.3-3.5 1.3-6.6v-6.6c0-3.1-.4-5.4-1.2-6.7-.7-1.3-1.7-1.8-3.3-1.8z"/><path d="m395.1 155.4c0-.7.2-1.3.6-1.8s1-.7 1.9-.7 1.5.2 1.9.7.6 1.1.6 1.8-.2 1.2-.6 1.7-1.1.7-1.9.7-1.5-.2-1.9-.7-.6-1.1-.6-1.7zm0-19.4c0-.7.2-1.3.6-1.8s1-.7 1.9-.7c.8 0 1.5.2 1.9.7s.6 1.1.6 1.8-.2 1.2-.6 1.7-1.1.7-1.9.7-1.5-.2-1.9-.7-.6-1.1-.6-1.7z"/><path d="m397.6 159.2c-1.3 0-2.3-.4-3-1.2-.7-.7-1-1.7-1-2.7 0-1.1.3-2 1-2.8.5-.6 1.4-1.2 3-1.2s2.5.6 3 1.2c.7.7 1 1.7 1 2.8s-.4 2-1.1 2.7c-.6.8-1.6 1.2-2.9 1.2zm0-4.8c-.3 0-.6 0-.8.2-.1.1-.2.3-.2.8 0 .4.1.6.2.7.2.2.6.2.8.2.3 0 .6 0 .8-.2.1-.1.2-.3.2-.7s-.1-.6-.3-.7c-.1-.3-.4-.3-.7-.3zm0-14.6c-1.3 0-2.3-.4-3-1.2-.7-.7-1-1.7-1-2.7 0-1.1.3-2 1-2.8.5-.5 1.4-1.2 3-1.2 1.3 0 2.3.4 3 1.2.7.7 1 1.7 1 2.8s-.4 2-1.1 2.7c-.6.8-1.6 1.2-2.9 1.2zm0-4.8c-.2 0-.6 0-.8.2-.1.1-.2.3-.2.8 0 .4.1.6.2.7.2.2.6.2.8.2.3 0 .6 0 .8-.2.1-.1.2-.3.2-.7s-.1-.6-.3-.7c0-.2-.3-.3-.7-.3z"/><path d="m425.8 143.8c0 4.8-.8 8.3-2.4 10.6s-4.2 3.5-7.6 3.5-5.9-1.1-7.6-3.4c-1.6-2.3-2.5-5.6-2.5-10.1v-5.4c0-4.7.8-8.2 2.4-10.5s4.2-3.4 7.6-3.4 6 1.1 7.6 3.3 2.5 5.6 2.5 10.2zm-4.1-5.5c0-3.4-.5-6-1.4-7.5s-2.5-2.4-4.6-2.4-3.6.8-4.5 2.4c-1 1.6-1.4 4-1.5 7.2v6.5c0 3.5.5 6 1.5 7.7 1 1.6 2.5 2.5 4.6 2.5 2 0 3.5-.8 4.5-2.3 1-1.6 1.5-4 1.5-7.3v-6.8z"/><path d="m415.7 159.4c-3.9 0-6.9-1.4-8.8-4-1.8-2.5-2.8-6.1-2.8-11v-5.4c0-5.1.9-8.8 2.7-11.4 1.9-2.7 4.9-4.1 8.9-4.1 3.9 0 6.9 1.3 8.8 3.9 1.8 2.5 2.8 6.1 2.8 11.1v5.3c0 5.1-.9 8.9-2.7 11.5-2 2.7-4.9 4.1-8.9 4.1zm0-32.8c-3 0-5.1.9-6.4 2.8-1.4 2-2.2 5.2-2.2 9.6v5.4c.1 4.1.8 7.3 2.3 9.3 1.4 1.9 3.4 2.8 6.4 2.8s5.1-.9 6.4-2.8c1.4-2 2.2-5.3 2.2-9.8v-5.3c0-4.2-.8-7.4-2.2-9.3-1.5-1.9-3.6-2.7-6.5-2.7zm0 29.5c-2.5 0-4.6-1.1-5.8-3.2-1.2-1.9-1.7-4.7-1.7-8.4v-6.5c0-3.6.6-6.2 1.7-8 1.2-2 3.2-3.1 5.8-3.1s4.6 1.1 5.9 3.1c1.1 1.8 1.7 4.5 1.7 8.3v6.7c0 3.7-.6 6.3-1.8 8.1-1.3 2-3.3 3-5.8 3zm0-26.2c-1.6 0-2.6.5-3.3 1.6-.8 1.3-1.2 3.5-1.3 6.5v6.5c0 3.2.4 5.5 1.3 6.9.7 1.2 1.8 1.8 3.3 1.8s2.5-.5 3.2-1.6c.8-1.3 1.3-3.5 1.3-6.6v-6.6c0-3.1-.4-5.4-1.2-6.7-.7-1.3-1.8-1.8-3.3-1.8z"/><path d="m451 143.8c0 4.8-.8 8.3-2.4 10.6s-4.2 3.5-7.6 3.5-5.9-1.1-7.6-3.4c-1.6-2.3-2.5-5.6-2.5-10.1v-5.4c0-4.7.8-8.2 2.4-10.5s4.2-3.4 7.6-3.4 6 1.1 7.6 3.3 2.5 5.6 2.5 10.2zm-4-5.5c0-3.4-.5-6-1.4-7.5s-2.5-2.4-4.6-2.4-3.6.8-4.5 2.4c-1 1.6-1.4 4-1.5 7.2v6.5c0 3.5.5 6 1.5 7.7 1 1.6 2.5 2.5 4.6 2.5 2 0 3.5-.8 4.5-2.3 1-1.6 1.5-4 1.5-7.3v-6.8z"/><path d="m441 159.4c-3.9 0-6.9-1.4-8.8-4-1.8-2.5-2.8-6.1-2.8-11v-5.4c0-5.1.9-8.8 2.7-11.4 1.9-2.7 4.9-4.1 8.9-4.1 3.9 0 6.9 1.3 8.8 3.9 1.8 2.5 2.8 6.1 2.8 11.1v5.3c0 5.1-.9 8.9-2.7 11.5-2 2.7-5 4.1-8.9 4.1zm-.1-32.8c-3 0-5.1.9-6.4 2.8-1.4 2-2.2 5.2-2.2 9.6v5.4c.1 4.1.8 7.3 2.3 9.3 1.4 1.9 3.4 2.8 6.4 2.8s5.1-.9 6.4-2.8c1.4-2 2.2-5.3 2.2-9.8v-5.3c0-4.2-.8-7.4-2.2-9.3s-3.5-2.7-6.5-2.7zm.1 29.5c-2.5 0-4.6-1.1-5.8-3.2-1.2-1.9-1.7-4.7-1.7-8.4v-6.5c0-3.6.6-6.2 1.7-8 1.2-2 3.2-3.1 5.8-3.1s4.6 1.1 5.9 3.1c1.1 1.8 1.7 4.5 1.7 8.3v6.7c0 3.7-.6 6.3-1.8 8.1-1.3 2-3.3 3-5.8 3zm-.1-26.2c-1.6 0-2.6.5-3.3 1.6-.8 1.3-1.2 3.5-1.3 6.5v6.5c0 3.2.4 5.5 1.3 6.9.7 1.2 1.8 1.8 3.3 1.8s2.5-.5 3.2-1.6c.8-1.3 1.3-3.5 1.3-6.6v-6.6c0-3.1-.4-5.4-1.2-6.7-.6-1.3-1.7-1.8-3.3-1.8z"/><path d="m457.5 160.2h-3.5l13.4-34.7h3.5z"/><path d="m458.5 161.7h-6.7l14.5-37.7h6.7zm-2.3-3h.3l12.2-31.7h-.3z"/><path d="m474.2 145.4c0-3.6.9-6.6 2.6-8.8s4-3.3 6.8-3.3 5 1 6.6 2.9v-12.4h4.1v33.8h-3.7l-.2-2.5c-1.6 2-3.9 3-6.8 3-2.8 0-5-1.1-6.7-3.4s-2.6-5.2-2.6-8.8zm4.1.5c0 2.7.6 4.8 1.7 6.3s2.7 2.3 4.6 2.3c2.6 0 4.5-1.2 5.6-3.5v-10.9c-1.2-2.2-3.1-3.4-5.6-3.4-2 0-3.5.8-4.7 2.3s-1.6 3.9-1.6 6.9z"/><path d="m483.6 159.4c-3.2 0-5.9-1.3-7.9-4-1.9-2.5-2.9-5.8-2.9-9.7v-.3c0-4 1-7.2 2.9-9.7 2-2.6 4.7-3.9 8-3.9 1.9 0 3.6.4 5.1 1.2v-10.8h7.1v36.8h-6.6l-.1-1c-1.7 1-3.5 1.4-5.6 1.4zm0-24.6c-2.3 0-4.2.9-5.6 2.8-1.5 1.9-2.3 4.6-2.3 7.9v.3c0 3.3.8 5.9 2.3 7.9 1.4 1.9 3.3 2.8 5.5 2.8 1.5 0 2.8-.3 3.9-.9-.9.3-1.8.5-2.9.5-2.4 0-4.4-1-5.8-2.9-1.3-1.8-2-4.2-2-7.2 0-3.4.6-5.9 2-7.7 1.4-1.9 3.4-2.9 5.9-2.9 1 0 1.9.1 2.7.4-1-.7-2.2-1-3.7-1zm8.3 21.2h.8v-30.8h-1.1v26.1l-.1.2zm-7.3-17.8c-1.5 0-2.6.5-3.4 1.7-.9 1.3-1.4 3.3-1.4 6 0 2.4.5 4.2 1.4 5.4.8 1.1 1.9 1.7 3.4 1.7 1.9 0 3.2-.7 4.1-2.4v-10.1c-.9-1.6-2.2-2.3-4.1-2.3z"/></g></svg>