<svg enable-background="new 0 0 512 512" viewBox="0 0 512 512" xmlns="http://www.w3.org/2000/svg"><circle cx="250.1" cy="255.9" fill="none" r="218" stroke="#fff" stroke-miterlimit="10" stroke-width="5"/><path d="m369.9 429h-239.6c-7.9 0-14.3-6.4-14.3-14.3v-313.5c0-7.9 6.4-14.3 14.3-14.3h51.4v9h-51.4c-2.9 0-5.3 2.4-5.3 5.3v313.5c0 2.9 2.4 5.3 5.3 5.3h239.6c2.9 0 5.3-2.4 5.3-5.3v-313.5c0-2.9-2.4-5.3-5.3-5.3h-51.4v-9h51.4c7.9 0 14.3 6.4 14.3 14.3v313.5c0 7.9-6.4 14.3-14.3 14.3z" fill="#141f33"/><path d="m286.6 108.9h-72.9c-6.1 0-11.1-5-11.1-11.1v-12.8c0-6.1 5-11.1 11.1-11.1h72.8c6.1 0 11.1 5 11.1 11.1v12.9c.1 2.8-1 5.6-3.1 7.7-2 2.1-4.9 3.3-7.9 3.3zm-72.9-28c-2.3 0-4.1 1.8-4.1 4.1v12.8c0 2.3 1.8 4.1 4.1 4.1h72.9c1.1 0 2.2-.4 2.9-1.2.7-.7 1.1-1.7 1.1-2.7v-13c0-2.3-1.8-4.1-4.1-4.1z" fill="#141f33"/><path d="m56.5 418.3 115.5-109.2 7.6 8-115.5 109.2z" fill="#141f33"/><path d="m243.3 346.6c-25.7 0-51.4-10-70.5-30-37.4-38.9-36.3-101 2.6-138.4s101-36.3 138.4 2.6 36.3 101-2.6 138.4c-19 18.3-43.5 27.4-67.9 27.4zm-.1-184.7c-21.7 0-43.4 8.1-60.3 24.3-34.5 33.2-35.6 88.4-2.3 122.9 33.2 34.5 88.4 35.6 122.9 2.3 34.5-33.2 35.6-88.4 2.3-122.9-17-17.7-39.8-26.6-62.6-26.6z" fill="#fff"/><path d="m59.4 424.2c-4.4-4.6-4.3-11.9.3-16.4l80.5-77.5c4.6-4.4 11.9-4.3 16.4.3 4.4 4.6 4.3 11.9-.3 16.4l-80.5 77.5c-4.7 4.5-12 4.3-16.4-.3z" fill="#fff"/><path d="m237.8 229.8c-.8 0-1.7-.1-2.5-.3l-22.2-6 1.8-6.8 22.2 6c1.1.3 1.8-.2 2.1-.5.6-.6.9-1.5.6-2.3l-6-22.2 6.8-1.8 6 22.2c.9 3.3-.1 6.7-2.5 9.1-1.7 1.7-4 2.6-6.3 2.6z" fill="#fff"/><path d="m270.1 278.7-5.4-20.3c-.8-3.2.1-6.4 2.4-8.6s5.4-3 8.4-2.1l20.3 5.4-1.8 6.8-20.3-5.4c-.9-.2-1.4.2-1.7.4-.2.2-.8.9-.5 1.9l5.4 20.2z" fill="#fff"/><g fill="#141f33"><circle cx="430.1" cy="280.8" r="3"/><circle cx="442.4" cy="285.9" r="5"/><circle cx="422.9" cy="295.2" r="4.2"/><circle cx="217.1" cy="51.1" r="3"/><circle cx="185.1" cy="56.1" r="5"/><circle cx="204.4" cy="56.1" r="4.2"/><circle cx="96.8" cy="341" r="4.2"/><circle cx="87.6" cy="333.5" r="5"/><circle cx="85.6" cy="356.3" r="3"/><circle cx="14.4" cy="152.2" r="3"/><circle cx="27.8" cy="175.2" r="5"/><ellipse cx="38.8" cy="159.7" rx="4.2" ry="4.2"/><circle cx="420.5" cy="106.1" r="3"/><circle cx="438" cy="91.4" r="5"/><circle cx="439.1" cy="103.2" r="4.2"/><circle cx="434.5" cy="432" r="3"/><circle cx="425.3" cy="411" r="5"/><circle cx="441.6" cy="397.1" r="4.2"/></g></svg>