<svg enable-background="new 0 0 512 512" viewBox="0 0 512 512" xmlns="http://www.w3.org/2000/svg"><g fill="#fff"><path d="m474.9 508.1h-437.8c-18 0-32.6-14.6-32.6-32.6v-438.3c0-18 14.6-32.6 32.6-32.6h437.8c18 0 32.6 14.6 32.6 32.6v438.3c0 18-14.6 32.6-32.6 32.6zm-437.8-498.5c-15.2 0-27.6 12.4-27.6 27.6v438.3c0 15.2 12.4 27.6 27.6 27.6h437.8c15.2 0 27.6-12.4 27.6-27.6v-438.3c0-15.2-12.4-27.6-27.6-27.6z"/><path d="m80 126c-21 0-38-17.1-38-38s17-38 38-38 38 17.1 38 38-17.1 38-38 38zm0-66c-15.4 0-28 12.6-28 28s12.6 28 28 28 28-12.6 28-28-12.6-28-28-28z"/><path d="m80 236c-21 0-38-17.1-38-38s17-38 38-38 38 17.1 38 38-17.1 38-38 38zm0-66c-15.4 0-28 12.6-28 28s12.6 28 28 28 28-12.6 28-28-12.6-28-28-28z"/><path d="m80 346c-21 0-38-17-38-38s17-38 38-38 38 17 38 38-17.1 38-38 38zm0-66c-15.4 0-28 12.6-28 28s12.6 28 28 28 28-12.6 28-28-12.6-28-28-28z"/><path d="m80 456c-21 0-38-17-38-38s17-38 38-38 38 17 38 38-17.1 38-38 38zm0-66c-15.4 0-28 12.6-28 28s12.6 28 28 28 28-12.6 28-28-12.6-28-28-28z"/><path d="m270.1 208.3-107.7-.3c-5.8 0-10.4-4.7-10.4-10.5s4.7-10.4 10.4-10.4l107.8.4c5.8 0 10.4 4.7 10.4 10.5 0 5.7-4.7 10.3-10.5 10.3z"/><path d="m420.2 103.7h-5.5v-36.1l-10.9 4v-4.9l15.5-5.8h.9z"/><path d="m422.7 106.2h-10.5v-35l-10.9 4v-10.3l17.6-6.6h3.8zm-5.4-5h.5v-37.1l-.5.2z"/><path d="m442.1 75.8c2.4-2.9 5.5-4.4 9.4-4.4 6.7 0 10.1 3.8 10.1 11.3v20.9h-5.4v-21c0-2.3-.5-4-1.6-5.1-1-1.1-2.6-1.6-4.8-1.6-1.8 0-3.3.5-4.6 1.4s-2.4 2.2-3.1 3.7v22.6h-5.4v-45h5.4z"/><path d="m464.1 106.2h-10.4v-23.5c0-1.6-.3-2.8-.9-3.4-.7-.7-2-.8-3-.8-1.2 0-2.3.3-3.2.9s-1.5 1.3-2 2.3v24.5h-10.4v-50h10.4v14.3c2-1.1 4.3-1.6 6.9-1.6 8.1 0 12.6 4.9 12.6 13.8zm-5.4-5h.4v-18.5c0-6.4-2.7-8.3-5.7-8.7 1.2.4 2.2 1 3 1.9 1.5 1.6 2.2 3.8 2.2 6.8v18.5zm-19.5 0h.4v-40h-.4z"/><path d="m430.4 213.7h-28v-3.9l14.8-16.4c2.2-2.5 3.7-4.5 4.5-6.1s1.3-3.2 1.3-4.8c0-2.2-.7-4.1-2-5.5-1.4-1.4-3.1-2.1-5.4-2.1-2.7 0-4.8.8-6.3 2.3s-2.2 3.7-2.2 6.4h-5.4c0-3.9 1.3-7.1 3.8-9.5s5.9-3.6 10.1-3.6c4 0 7.1 1 9.4 3.1s3.5 4.9 3.5 8.3c0 4.2-2.7 9.2-8 15l-11.4 12.4h21.4z"/><path d="m432.9 216.2h-33v-7.4l15.4-17.1c2-2.3 3.4-4.2 4.2-5.6.6-1.2 1-2.4 1-3.6 0-1.6-.4-2.8-1.3-3.8-.9-.9-2-1.4-3.6-1.4-2 0-3.5.5-4.5 1.5-1 1.1-1.5 2.6-1.5 4.7v2.5h-10.4v-2.5c0-4.6 1.5-8.4 4.6-11.3 3-2.9 7-4.3 11.9-4.3 4.6 0 8.3 1.3 11.1 3.8 2.8 2.6 4.3 6 4.3 10.2 0 4.9-2.8 10.4-8.7 16.7l-7.6 8.2h18.2zm-11.5-42.1c.5.3.9.7 1.4 1.2 1.8 1.9 2.7 4.3 2.7 7.2 0 1.2-.2 2.4-.5 3.6.7-1.5 1-2.9 1-4.2 0-2.7-.9-4.9-2.6-6.4-.7-.6-1.3-1-2-1.4zm-17.1 7h.4c.3-1.9 1-3.6 2.1-4.9-1.3 1.3-2.1 2.9-2.5 4.9z"/><path d="m442.1 185.8c2.4-2.9 5.5-4.4 9.4-4.4 6.7 0 10.1 3.8 10.1 11.3v20.9h-5.4v-21c0-2.3-.5-4-1.6-5.1-1-1.1-2.6-1.6-4.8-1.6-1.8 0-3.3.5-4.6 1.4s-2.4 2.2-3.1 3.7v22.6h-5.4v-45h5.4z"/><path d="m464.1 216.2h-10.4v-23.5c0-1.6-.3-2.8-.9-3.4-.7-.7-2-.9-3-.9-1.2 0-2.3.3-3.2.9s-1.5 1.3-2 2.3v24.5h-10.4v-50h10.4v14.3c2-1.1 4.3-1.6 6.9-1.6 8.1 0 12.6 4.9 12.6 13.8zm-5.4-5h.4v-18.4c0-6.4-2.7-8.3-5.7-8.7 1.2.4 2.2 1 3 1.9 1.5 1.6 2.2 3.8 2.2 6.8v18.4zm-19.5 0h.4v-40h-.4z"/><path d="m359.7 299.7h4.1c2.6 0 4.6-.7 6-2 1.5-1.3 2.2-3.1 2.2-5.3 0-5-2.5-7.5-7.5-7.5-2.3 0-4.2.7-5.6 2s-2.1 3.1-2.1 5.3h-5.4c0-3.4 1.2-6.2 3.7-8.4s5.6-3.4 9.4-3.4c4 0 7.2 1.1 9.5 3.2s3.4 5.1 3.4 8.9c0 1.9-.6 3.6-1.8 5.4-1.2 1.7-2.8 3-4.9 3.9 2.3.7 4.2 2 5.4 3.7 1.3 1.7 1.9 3.8 1.9 6.3 0 3.8-1.3 6.9-3.8 9.1-2.5 2.3-5.8 3.4-9.8 3.4s-7.3-1.1-9.8-3.3-3.8-5-3.8-8.6h5.5c0 2.3.7 4 2.2 5.4s3.4 2 5.9 2c2.6 0 4.6-.7 6-2s2.1-3.3 2.1-5.9c0-2.5-.8-4.4-2.3-5.7s-3.7-2-6.6-2h-4.1z"/><path d="m364.5 326.8c-4.6 0-8.4-1.3-11.4-3.9-3.1-2.6-4.6-6.2-4.6-10.5v-2.5h10.5v2.5c0 1.5.4 2.7 1.4 3.5 1 .9 2.4 1.4 4.2 1.4 1.9 0 3.4-.5 4.3-1.3.9-.9 1.3-2.2 1.3-4.1 0-1.7-.5-3-1.4-3.8-1.1-.9-2.7-1.4-5-1.4h-6.5v-9.4h6.6c1.9 0 3.4-.5 4.4-1.4.9-.8 1.4-1.9 1.4-3.4 0-3.6-1.4-5-5-5-1.7 0-3 .4-3.9 1.3s-1.3 2-1.3 3.5v2.5h-10.4v-2.5c0-4.1 1.5-7.6 4.5-10.3 2.9-2.7 6.7-4 11.1-4 4.7 0 8.4 1.3 11.2 3.9s4.2 6.2 4.2 10.7c0 2.4-.8 4.7-2.3 6.8-.6.8-1.2 1.6-2 2.2.9.7 1.7 1.5 2.4 2.4 1.6 2.1 2.4 4.8 2.4 7.8 0 4.5-1.5 8.2-4.6 11-3 2.6-6.8 4-11.5 4zm-10.7-11.9c.4 1.7 1.3 3 2.6 4.2 0 0 0 0 .1.1-1.1-1.2-1.9-2.6-2.3-4.3zm20.1-8.1c.8 1.5 1.2 3.2 1.2 5.1 0 2.5-.6 4.6-1.7 6.3 1.4-1.7 2.1-3.8 2.1-6.5 0-2-.5-3.5-1.4-4.8 0 0-.1-.1-.2-.1zm-1.5-21.3c1.4 1.7 2.1 4 2.1 6.8 0 1.3-.2 2.4-.6 3.5.7-1.1 1-2.2 1-3.4 0-2.9-.8-5.2-2.5-6.9zm-18.2 4.2h.4c.3-1.3.8-2.4 1.5-3.4-.9 1-1.6 2.1-1.9 3.4z"/><path d="m412.2 305.5c0 6.4-1.1 11.1-3.3 14.1s-5.6 4.6-10.2 4.6c-4.5 0-7.9-1.5-10.1-4.5s-3.3-7.5-3.4-13.5v-7.2c0-6.3 1.1-10.9 3.3-14s5.6-4.6 10.2-4.6 8 1.5 10.1 4.4 3.3 7.5 3.3 13.6zm-5.4-7.4c0-4.6-.6-7.9-1.9-10s-3.3-3.1-6.1-3.1-4.8 1-6.1 3.1-1.9 5.3-2 9.6v8.7c0 4.6.7 8 2 10.2s3.4 3.3 6.1 3.3 4.7-1 6-3.1 2-5.3 2-9.8z"/><path d="m398.8 326.8c-5.4 0-9.5-1.9-12.1-5.6-2.5-3.5-3.8-8.4-3.9-15v-7.2c0-6.9 1.2-11.9 3.7-15.4 2.6-3.7 6.8-5.6 12.2-5.6s9.5 1.8 12.1 5.4c2.5 3.4 3.8 8.3 3.8 15.1v7c0 6.9-1.2 12-3.7 15.6-2.5 3.8-6.6 5.7-12.1 5.7zm-7.1-41.6c-.4.4-.8.8-1.1 1.3-1.9 2.6-2.8 6.8-2.8 12.5v7.2c.1 5.4 1 9.5 2.9 12 .4.5.8 1 1.3 1.4-.5-.5-1-1.1-1.4-1.8-1.6-2.6-2.4-6.4-2.4-11.5v-8.7c0-4.9.8-8.4 2.3-10.9.4-.5.8-1 1.2-1.5zm14-.2c.5.5 1 1.1 1.3 1.7 1.5 2.5 2.3 6.2 2.3 11.3v8.9c-.1 5-.9 8.6-2.4 11.1-.3.5-.7 1-1.1 1.4.4-.4.8-.8 1.1-1.3 1.9-2.6 2.8-6.9 2.8-12.7v-7c0-5.5-1-9.6-2.9-12.1-.3-.4-.7-.9-1.1-1.3zm-6.9 2.4c-2.4 0-3.4 1-3.9 1.9-.7 1.2-1.6 3.6-1.6 8.4v8.6c0 5.1.9 7.7 1.6 8.9.9 1.5 2.1 2.1 3.9 2.1s3-.6 3.8-1.9c.7-1.1 1.6-3.5 1.6-8.5v-8.8c0-5.1-.9-7.6-1.6-8.7-.4-1-1.4-2-3.8-2z"/><path d="m424.8 292 .1 3.5c2.3-2.7 5.5-4.1 9.4-4.1 4.4 0 7.5 1.7 9 5.1 1-1.5 2.4-2.8 4.1-3.7s3.7-1.4 6-1.4c7 0 10.5 3.7 10.6 11v21.2h-5.4v-20.9c0-2.3-.5-4-1.5-5.1s-2.8-1.7-5.2-1.7c-2 0-3.7.6-5 1.8s-2.1 2.8-2.3 4.9v21h-5.5v-20.8c0-4.6-2.3-6.9-6.8-6.9-3.5 0-6 1.5-7.3 4.5v23.1h-5.4v-31.5z"/><path d="m466.6 326.2h-10.4v-23.4c0-1.1-.1-2.6-.9-3.4-.5-.6-1.7-.9-3.4-.9-1.4 0-2.5.4-3.3 1.2s-1.3 1.8-1.5 3.1v23.4h-10.5v-23.3c0-3.2-1.2-4.4-4.3-4.4-2.4 0-3.9.8-4.8 2.6v25.1h-10.4v-36.7h10v1c2.1-1.1 4.5-1.6 7.1-1.6 4.6 0 7.5 1.6 9.3 3.6.8-.7 1.7-1.3 2.6-1.9 2.1-1.1 4.5-1.7 7.2-1.7 8.3 0 13 4.8 13.1 13.5zm-5.4-5h.4v-18.7c-.1-5-1.8-7.6-5.6-8.3 1.2.4 2.2 1 2.9 1.9 1.5 1.6 2.2 3.9 2.2 6.8zm-19.5 0h.5v-18.8c.1-.7.2-1.3.4-2l-1.4-2.9c-.6-1.4-1.9-3.1-5.2-3.6 3.7 1.1 5.7 4.3 5.7 8.9zm-19.5 0h.4v-21.3l-.2-5.5h-.2z"/><path d="m420.2 433.7h-5.5v-36.1l-10.9 4v-4.9l15.5-5.8h.9z"/><path d="m422.7 436.2h-10.5v-35l-10.9 4v-10.2l17.6-6.6h3.8zm-5.4-5h.5v-37.1l-.5.2z"/><path d="m442.1 405.8c2.4-3 5.5-4.4 9.4-4.4 6.7 0 10.1 3.8 10.1 11.3v21h-5.4v-21c0-2.3-.5-4-1.6-5.1-1-1.1-2.6-1.6-4.8-1.6-1.8 0-3.3.5-4.6 1.4s-2.4 2.2-3.1 3.7v22.6h-5.4v-45h5.4z"/><path d="m464.1 436.2h-10.4v-23.5c0-1.6-.3-2.8-.9-3.4-.7-.7-2-.9-3-.9-1.2 0-2.3.3-3.2 1-.9.6-1.5 1.3-2 2.3v24.5h-10.4v-50h10.4v14.3c2-1.1 4.3-1.6 6.9-1.6 8.1 0 12.6 4.9 12.6 13.8zm-5.4-5h.4v-18.5c0-6.4-2.7-8.3-5.7-8.7 1.2.4 2.2 1 3 1.9 1.5 1.6 2.2 3.8 2.2 6.8v18.5zm-19.5 0h.4v-40h-.4z"/><path d="m316 98h-153c-5.5 0-10-4.5-10-10s4.5-10 10-10h153c5.5 0 10 4.5 10 10s-4.5 10-10 10z"/><path d="m297 318h-134c-5.5 0-10-4.5-10-10s4.5-10 10-10h134c5.5 0 10 4.5 10 10s-4.5 10-10 10z"/><path d="m249 428h-86c-5.5 0-10-4.5-10-10s4.5-10 10-10h86c5.5 0 10 4.5 10 10s-4.5 10-10 10z"/></g></svg>