<svg enable-background="new 0 0 512 512" viewBox="0 0 512 512" xmlns="http://www.w3.org/2000/svg"><path d="m474.9 508.1h-437.8c-18 0-32.6-14.6-32.6-32.6v-438.3c0-18 14.6-32.6 32.6-32.6h437.8c18 0 32.6 14.6 32.6 32.6v438.3c0 18-14.6 32.6-32.6 32.6zm-437.8-498.5c-15.2 0-27.6 12.4-27.6 27.6v438.3c0 15.2 12.4 27.6 27.6 27.6h437.8c15.2 0 27.6-12.4 27.6-27.6v-438.3c0-15.2-12.4-27.6-27.6-27.6z" fill="#fff"/><path d="m468.6 264h-336.2c-5.2 0-9.4-4.2-9.4-9.4v-176.2c0-5.2 4.2-9.4 9.4-9.4h336.3c5.2 0 9.4 4.2 9.4 9.4v176.3c-.1 5.1-4.3 9.3-9.5 9.3z" fill="#fff"/><path d="m360.4 170.4-107.8-.4c-5.8 0-10.4-4.7-10.4-10.5s4.7-10.4 10.4-10.4l107.8.4c5.8 0 10.4 4.7 10.4 10.5 0 5.7-4.7 10.4-10.4 10.4z" fill="#00020c"/><path d="m188 197c-20.9 0-38-17.1-38-38s17.1-38 38-38 38 17.1 38 38-17.1 38-38 38zm0-66c-15.4 0-28 12.6-28 28s12.6 28 28 28 28-12.6 28-28-12.6-28-28-28z" fill="#00020c"/><path d="m468.6 462h-336.2c-5.2 0-9.4-4.2-9.4-9.4v-127.2c0-5.2 4.2-9.4 9.4-9.4h336.3c5.2 0 9.4 4.2 9.4 9.4v127.3c-.1 5.1-4.3 9.3-9.5 9.3z" fill="#fff"/><path d="m188 427c-20.9 0-38-17-38-38s17.1-38 38-38 38 17 38 38-17.1 38-38 38zm0-66c-15.4 0-28 12.6-28 28s12.6 28 28 28 28-12.6 28-28-12.6-28-28-28z" fill="#00020c"/><path d="m360.4 399.6-107.8-.4c-5.8 0-10.4-4.7-10.4-10.5s4.7-10.4 10.4-10.4l107.8.4c5.8 0 10.4 4.7 10.4 10.5s-4.7 10.4-10.4 10.4z" fill="#00020c"/><g fill="#fff"><path d="m51.6 113.3h-5.5v-36.1l-10.9 4v-4.9l15.5-5.8h.8c.1-.1.1 42.8.1 42.8z"/><path d="m54.1 115.8h-10.5v-35l-10.9 4v-10.3l17.6-6.6h3.8zm-5.5-5h.5v-37.1l-.5.2z"/><path d="m85.3 113.3h-5.4v-36.1l-10.9 4v-4.9l15.5-5.8h.8z"/><path d="m87.8 115.8h-10.5v-35l-10.9 4v-10.3l17.6-6.6h3.8zm-5.5-5h.4v-37.1l-.4.2z"/><path d="m51.6 274.5h-5.5v-36.1l-10.9 4v-4.9l15.5-5.8h.8c.1 0 .1 42.8.1 42.8z"/><path d="m54.1 277h-10.5v-35l-10.9 4v-10.2l17.6-6.6h3.8zm-5.5-5h.5v-37l-.5.2z"/><path d="m95.4 274.5h-28v-3.9l14.8-16.4c2.2-2.5 3.7-4.5 4.5-6.1s1.3-3.2 1.3-4.8c0-2.2-.7-4.1-2-5.5s-3.2-2.1-5.4-2.1c-2.7 0-4.8.8-6.3 2.3s-2.2 3.7-2.2 6.4h-5.4c0-3.9 1.3-7.1 3.8-9.5s5.9-3.6 10.2-3.6c4 0 7.1 1 9.4 3.1s3.5 4.9 3.5 8.3c0 4.2-2.7 9.2-8 15l-11.6 12.4h21.4z"/><path d="m97.9 277h-33v-7.4l15.4-17.1c2-2.3 3.4-4.2 4.2-5.6.6-1.2.9-2.4.9-3.6 0-1.6-.4-2.8-1.3-3.8-.9-.9-2-1.4-3.6-1.4-2 0-3.5.5-4.5 1.5-1 1.1-1.5 2.6-1.5 4.7v2.5h-10.3v-2.5c0-4.6 1.5-8.4 4.6-11.3 3-2.9 7-4.3 11.9-4.3 4.6 0 8.3 1.3 11.1 3.8 2.8 2.6 4.3 6 4.3 10.2 0 4.9-2.8 10.4-8.7 16.7l-7.6 8.2h18.2c-.1 0-.1 9.4-.1 9.4zm-11.4-42c.5.3.9.7 1.3 1.1 1.8 1.9 2.7 4.3 2.7 7.2 0 1.2-.2 2.4-.6 3.6.7-1.5 1-3 1-4.3 0-2.7-.9-4.9-2.6-6.5-.5-.3-1.1-.7-1.8-1.1zm-17.1 6.9h.4c.3-1.9 1-3.6 2.1-5-1.3 1.5-2.2 3.1-2.5 5z"/><path d="m51.6 439.2h-5.5v-36.1l-10.9 4v-4.9l15.5-5.8h.8c.1 0 .1 42.8.1 42.8z"/><path d="m54.1 441.7h-10.5v-35l-10.9 4v-10.2l17.6-6.6h3.8zm-5.5-5h.5v-37.1l-.5.2z"/><path d="m75.3 415.3h4.1c2.6 0 4.6-.7 6-2 1.5-1.3 2.2-3.1 2.2-5.3 0-5-2.5-7.5-7.5-7.5-2.3 0-4.2.7-5.6 2s-2.1 3.1-2.1 5.3h-5.4c0-3.4 1.2-6.2 3.7-8.4s5.6-3.4 9.4-3.4c4 0 7.2 1.1 9.5 3.2s3.4 5.1 3.4 8.9c0 1.9-.6 3.6-1.8 5.4-1.2 1.7-2.8 3-4.9 3.9 2.3.7 4.2 2 5.4 3.7 1.3 1.7 1.9 3.8 1.9 6.3 0 3.8-1.3 6.9-3.8 9.1-2.5 2.3-5.8 3.4-9.8 3.4s-7.3-1.1-9.8-3.3-3.8-5-3.8-8.6h5.4c0 2.3.7 4 2.2 5.4s3.4 2 5.9 2c2.6 0 4.6-.7 6-2s2.1-3.3 2.1-5.9c0-2.5-.8-4.4-2.3-5.7s-3.7-2-6.6-2h-4.1z"/><path d="m80.2 442.3c-4.6 0-8.4-1.3-11.4-3.9-3.1-2.6-4.6-6.2-4.6-10.5v-2.5h10.4v2.5c0 1.5.4 2.7 1.4 3.5 1 .9 2.4 1.4 4.2 1.4 2 0 3.3-.4 4.3-1.3.9-.9 1.3-2.2 1.3-4.1 0-2.3-.8-3.3-1.4-3.8-1.1-.9-2.7-1.4-5-1.4h-6.5v-7h2.5v-2.5h4.1c1.9 0 3.4-.5 4.4-1.4.9-.8 1.4-1.9 1.4-3.4 0-3.6-1.4-5-5-5-1.7 0-3 .4-3.9 1.3s-1.3 2-1.3 3.5v2.5h-10.5v-2.5c0-4.1 1.5-7.6 4.5-10.3 2.9-2.6 6.7-4 11.1-4 4.7 0 8.4 1.3 11.2 3.9s4.2 6.2 4.2 10.7c0 2.4-.8 4.6-2.2 6.8-.6.8-1.2 1.6-1.9 2.2.9.7 1.7 1.5 2.4 2.4 1.6 2.1 2.4 4.8 2.4 7.8 0 4.6-1.5 8.3-4.6 11-3 2.8-6.9 4.1-11.5 4.1zm-10.7-11.8c.4 1.7 1.3 3 2.6 4.2 0 0 .1 0 .1.1-1.1-1.2-1.9-2.6-2.3-4.3zm20.1-8.1c.8 1.5 1.2 3.2 1.2 5.1 0 2.5-.6 4.6-1.7 6.3 1.4-1.6 2.1-3.8 2.1-6.4 0-2-.5-3.5-1.4-4.8-.1-.1-.1-.2-.2-.2zm-1.6-21.3c1.4 1.7 2.1 4 2.1 6.8 0 1.3-.2 2.5-.6 3.6.7-1.2 1.1-2.3 1.1-3.5 0-3-.9-5.2-2.6-6.9zm-18.1 4.2h.4c.3-1.3.8-2.4 1.5-3.4-1 1-1.6 2.1-1.9 3.4z"/></g></svg>